<?xml version="1.0" standalone="no"?>
<!DOCTYPE svg PUBLIC "-//W3C//DTD SVG 20010904//EN"
 "http://www.w3.org/TR/2001/REC-SVG-20010904/DTD/svg10.dtd">
<svg version="1.0" xmlns="http://www.w3.org/2000/svg"
 width="1160.000000pt" height="1160.000000pt" viewBox="0 0 1160.000000 1160.000000"
 preserveAspectRatio="xMidYMid meet">
<metadata>
Created by potrace 1.11, written by Peter Selinger 2001-2013
</metadata>
<g transform="translate(0.000000,1160.000000) scale(0.100000,-0.100000)"
fill="#000000" stroke="none">
<path d="M0 5800 l0 -5800 2578 1 c1417 1 2587 4 2600 7 13 4 23 10 23 15 -1
4 8 16 20 28 18 18 33 25 61 28 3 1 4 10 1 21 -3 11 -1 20 3 21 61 4 100 22
89 39 -10 16 20 16 33 1 11 -14 11 -14 6 2 -5 13 -2 16 12 10 11 -4 15 -3 11
4 -4 6 10 13 35 17 23 4 48 12 55 18 11 8 12 7 6 -7 -5 -14 -3 -17 10 -12 9 3
24 -1 34 -11 16 -16 16 -16 10 8 -5 22 -4 23 7 8 11 -15 13 -15 24 0 9 14 11
14 9 2 -1 -9 5 -14 16 -12 12 2 19 -6 23 -27 4 -16 12 -32 19 -35 11 -4 31
-70 27 -89 -1 -4 2 -7 8 -7 5 0 7 -7 4 -15 -5 -13 71 -15 652 -15 408 0 665 4
674 10 13 8 12 10 -4 10 -14 0 -16 3 -7 13 8 10 7 17 -2 26 -9 11 -9 14 1 18
9 4 10 8 2 18 -8 9 -8 15 0 20 5 3 10 17 10 31 0 13 5 24 10 24 6 0 10 6 10
14 0 8 9 18 21 21 11 4 18 9 15 13 -3 3 1 14 11 24 9 10 12 18 7 18 -5 0 -3 4
5 9 10 7 19 4 29 -7 7 -9 11 -11 7 -4 -7 14 11 42 27 42 6 0 5 -7 -2 -15 -10
-12 -10 -15 2 -15 12 0 35 -15 92 -63 16 -13 17 -16 4 -11 -26 9 -22 -8 7 -30
13 -10 22 -22 20 -26 -3 -5 2 -16 11 -25 13 -12 14 -19 5 -28 -13 -13 -15 -28
-4 -26 5 1 13 1 20 0 17 -1 4 -31 -14 -31 -12 0 -12 -2 1 -15 13 -13 264 -15
2136 -15 l2120 0 -5 4218 c-3 2319 -8 4345 -10 4502 -2 157 -4 869 -4 1583
l-1 1297 -5785 0 -5785 0 0 -5800z m4823 3252 c-4 -15 9 -16 23 -2 16 16 43 1
50 -26 3 -13 12 -24 20 -24 8 0 11 6 8 15 -5 12 -1 13 26 4 23 -9 28 -14 18
-20 -8 -6 -9 -9 -1 -9 6 0 19 7 27 16 15 14 20 11 17 -8 0 -5 6 -8 14 -8 8 0
15 4 15 9 0 6 9 9 19 8 11 0 18 -4 15 -8 -2 -4 0 -11 6 -14 6 -4 8 -15 5 -25
-8 -27 5 -30 54 -13 24 8 57 12 73 9 18 -3 27 -2 23 4 -3 6 -2 10 4 10 5 0 11
-4 13 -9 2 -4 32 -5 68 0 39 4 66 4 68 -2 2 -5 13 -9 23 -9 11 0 17 5 14 10
-6 10 13 15 48 12 11 -1 15 2 11 9 -4 7 -1 10 7 7 8 -3 13 -10 12 -16 -2 -6 6
-10 17 -9 11 1 20 6 20 12 0 6 3 6 8 -1 11 -17 40 -24 46 -11 3 9 8 8 15 -3 7
-10 11 -11 11 -2 0 15 106 17 115 2 9 -14 43 -12 48 3 3 9 8 8 22 -3 10 -8 16
-10 12 -3 -11 17 8 24 36 14 17 -7 28 -6 36 2 8 8 17 8 29 1 9 -6 28 -7 42 -3
37 10 62 10 55 0 -3 -6 7 -8 22 -6 16 2 35 4 43 5 9 0 6 6 -10 15 -30 17 -21
20 14 4 14 -7 32 -8 43 -3 30 13 102 12 96 -2 -2 -7 -11 -15 -19 -18 -8 -3
-14 -11 -14 -18 0 -10 2 -10 9 0 5 8 20 15 34 15 14 1 25 6 24 12 -1 5 8 11
21 13 12 2 22 -1 22 -7 0 -5 17 -13 38 -17 20 -4 49 -15 64 -25 14 -11 31 -19
36 -19 5 0 13 -7 16 -16 5 -12 8 -13 20 -2 8 7 12 16 9 21 -2 4 1 7 7 7 6 0 8
6 4 13 -4 6 2 3 14 -7 12 -11 22 -24 22 -30 0 -6 -5 -4 -11 4 -8 12 -9 10 -7
-9 3 -20 9 -24 46 -26 23 -1 42 2 42 7 0 5 5 6 10 3 6 -3 10 -13 10 -21 0 -8
-4 -12 -10 -9 -5 3 -18 1 -27 -4 -12 -7 -13 -10 -4 -11 8 0 11 -6 7 -16 -3 -8
-2 -13 3 -9 5 3 12 -1 15 -7 5 -10 7 -10 12 -1 4 10 9 10 20 -1 18 -19 18 -30
-1 -23 -21 9 -28 -9 -10 -26 20 -20 19 -27 -2 -27 -15 0 -16 -2 -3 -10 13 -8
12 -10 -3 -10 -10 0 -16 -4 -12 -9 3 -6 -3 -15 -14 -20 -14 -8 -20 -8 -23 1
-3 7 -7 5 -11 -6 -6 -14 -2 -17 16 -14 20 3 47 -27 47 -53 0 -15 -39 14 -42
31 -3 12 -5 12 -11 -3 -5 -13 -1 -20 16 -27 l22 -9 -22 0 c-26 -1 -32 -21 -7
-21 14 0 14 -2 0 -15 -8 -8 -21 -15 -28 -15 -10 0 -9 3 2 10 13 8 13 10 -2 10
-11 0 -20 -10 -24 -27 -3 -16 -7 -34 -9 -40 -2 -7 4 -18 15 -26 10 -7 24 -25
29 -40 l10 -26 -52 4 -52 4 52 -11 c47 -10 51 -13 49 -37 -1 -14 -5 -31 -8
-37 -6 -9 11 -11 42 -5 3 1 -2 6 -10 12 -10 7 -11 9 -2 7 8 -2 14 -8 14 -13 0
-6 4 -15 9 -21 7 -8 4 -11 -8 -10 -13 1 -18 -6 -18 -27 0 -15 -6 -31 -13 -36
-7 -4 -15 -26 -16 -49 -3 -38 -2 -40 16 -31 10 6 16 15 12 22 -4 7 -1 6 7 -2
10 -9 11 -15 3 -18 -7 -2 -10 -13 -7 -23 3 -12 0 -20 -7 -20 -18 0 -42 -28
-30 -35 5 -3 15 -3 20 0 6 3 10 1 10 -6 0 -9 3 -10 11 -2 12 12 49 6 49 -9 0
-5 5 -6 10 -3 6 3 10 1 10 -4 0 -6 -7 -11 -15 -11 -8 0 -15 5 -15 10 0 6 -9
10 -20 10 -11 0 -20 -5 -20 -12 0 -9 -3 -9 -12 0 -17 17 -33 15 -18 -3 16 -19
4 -35 -27 -35 -23 0 -24 2 -12 18 13 16 12 16 -4 3 -16 -13 -20 -13 -28 0 -7
11 -9 10 -9 -5 0 -11 -5 -16 -13 -13 -8 3 -20 1 -28 -4 -11 -7 -11 -9 -1 -9 7
0 10 -4 7 -10 -3 -5 -1 -10 5 -10 8 0 8 -6 0 -20 -6 -11 -18 -20 -28 -20 -9 0
-25 -14 -34 -30 -9 -17 -24 -30 -33 -30 -8 0 -15 -5 -15 -11 0 -5 5 -7 10 -4
6 3 10 1 10 -4 0 -6 -6 -11 -12 -11 -7 -1 -1 -11 14 -23 l28 -23 -45 -10 c-25
-6 -45 -7 -45 -2 0 4 -5 8 -11 8 -6 0 -9 -7 -5 -15 5 -13 -9 -20 -35 -17 -3 1
-4 -9 -2 -22 5 -27 -18 -40 -51 -30 -12 4 -18 3 -14 -1 10 -11 -10 -45 -26
-45 -8 0 -13 -8 -12 -17 1 -15 -7 -18 -51 -17 -50 1 -68 -8 -40 -19 6 -3 2 -6
-10 -6 -13 -1 -28 -10 -35 -21 -9 -13 -24 -20 -45 -20 -23 0 -33 -5 -38 -20
-4 -11 -10 -18 -14 -15 -13 7 -61 -19 -57 -31 5 -13 -31 -7 -39 7 -3 4 -12 6
-20 3 -8 -4 -12 -10 -9 -15 3 -5 10 -6 16 -3 7 4 8 2 4 -4 -4 -7 -14 -12 -23
-12 -9 0 -25 -7 -35 -17 -17 -15 -18 -14 -18 22 0 37 -12 44 -14 8 -2 -39 -69
-97 -80 -70 -2 7 -5 4 -5 -6 -1 -9 -4 -16 -8 -15 -5 1 -20 -6 -36 -16 -21 -15
-30 -16 -42 -6 -8 6 -20 8 -26 4 -8 -4 -9 -3 -5 4 5 8 2 10 -9 6 -13 -5 -13
-9 -3 -22 11 -13 10 -14 -15 -8 -18 4 -26 3 -25 -5 2 -6 -3 -14 -10 -16 -8 -3
-10 1 -5 14 3 10 3 15 -2 11 -4 -4 -14 -3 -22 3 -7 7 -26 9 -43 5 -17 -3 -30
-1 -30 4 0 5 -23 7 -51 5 -35 -3 -59 1 -75 12 -15 9 -24 11 -24 4 0 -6 -5 -11
-11 -11 -5 0 -7 4 -4 10 7 11 -57 40 -87 40 -10 0 -17 4 -14 9 3 4 -6 6 -20 3
-14 -2 -32 2 -42 10 -9 9 -24 18 -32 21 -11 4 -9 7 8 13 30 9 10 24 -30 24
-16 0 -28 5 -28 11 0 6 -7 9 -15 5 -8 -3 -14 -2 -12 2 5 18 -32 50 -66 56 -21
4 -35 11 -32 17 6 9 -7 13 -38 10 -10 -2 -21 8 -27 25 -6 15 -13 24 -17 21
-12 -13 -45 15 -40 34 3 12 0 19 -9 19 -8 0 -14 5 -14 10 0 6 -11 15 -25 20
-27 10 -32 25 -12 34 6 3 2 3 -10 0 -18 -4 -20 -1 -16 16 4 14 1 20 -11 20 -9
0 -16 7 -16 15 0 10 -10 15 -27 15 -21 0 -24 3 -15 12 7 7 12 15 12 19 0 13
-33 19 -45 9 -10 -8 -15 -8 -21 1 -4 7 -3 9 3 6 6 -4 18 2 27 12 17 18 16 19
-12 17 -21 -1 -28 2 -25 11 3 7 9 11 13 8 5 -3 6 4 3 15 -5 18 -15 24 -35 21
-5 0 -8 8 -8 19 0 17 -5 19 -32 13 -18 -3 -37 -11 -41 -17 -6 -8 -10 -7 -14 2
-2 6 -9 12 -15 12 -5 0 -17 7 -26 16 -15 15 -14 16 7 9 16 -5 21 -4 17 4 -4 6
-14 11 -22 11 -8 0 -13 4 -9 9 3 6 -3 15 -14 21 -12 6 -18 16 -15 25 9 23 -4
18 -17 -7 -10 -18 -8 -24 12 -40 18 -15 19 -18 6 -14 -10 3 -23 6 -29 6 -6 0
-8 13 -6 30 4 25 1 30 -16 31 -12 0 -15 3 -8 6 27 11 10 24 -25 18 -27 -5 -34
-4 -23 4 8 5 18 7 22 5 4 -3 8 -1 8 4 0 6 8 9 18 7 9 -1 11 0 4 2 -7 3 -18 16
-23 31 l-10 25 -15 -21 c-10 -14 -26 -22 -45 -22 -16 0 -29 -5 -29 -11 0 -7
12 -10 29 -7 17 2 27 0 24 -5 -3 -5 -19 -7 -35 -5 -16 3 -31 1 -34 -4 -3 -5
-9 -6 -14 -3 -5 3 5 19 23 36 32 29 32 29 6 23 -19 -4 -28 -1 -32 10 -4 9 -2
16 4 16 6 0 8 9 4 21 -5 15 -4 19 4 15 6 -4 11 -5 11 -1 0 3 -11 10 -25 15
-14 5 -25 14 -25 19 0 12 30 2 48 -15 6 -7 12 -17 12 -23 0 -6 7 -11 15 -11
18 0 20 -20 3 -20 -7 0 -5 -5 5 -11 9 -6 15 -14 12 -20 -4 -5 -2 -9 3 -9 6 0
13 7 16 16 3 8 2 12 -3 9 -5 -3 -12 -1 -15 4 -4 5 -2 12 3 15 5 3 7 14 4 25
-3 11 2 21 12 25 9 3 13 2 10 -4 -3 -6 1 -10 10 -10 11 0 15 5 11 16 -3 9 -2
12 4 9 7 -4 9 4 6 21 -4 20 -2 24 6 16 7 -7 16 -5 31 9 11 10 17 22 14 26 -4
3 -7 1 -7 -5 0 -7 -15 -12 -37 -12 -40 0 -41 7 -2 14 13 2 23 8 22 14 -2 6 21
8 60 6 54 -4 60 -3 45 9 -10 8 -15 17 -11 20 3 4 13 1 22 -6 14 -11 14 -10 2
6 -8 10 -21 15 -32 12 -14 -5 -16 -1 -12 15 5 20 -12 29 -19 10 -1 -5 -8 2
-15 15 -9 21 -9 25 4 25 8 0 22 -9 31 -20 15 -17 19 -18 36 -5 20 15 20 15 0
15 -19 1 -19 1 1 18 22 18 26 35 11 49 -5 4 -6 3 -3 -3 8 -14 -18 -38 -32 -30
-5 4 -12 2 -15 -3 -6 -10 -56 -12 -57 -2 0 3 -2 15 -4 25 -2 11 4 26 13 33 15
12 15 13 -8 11 -15 -2 -25 2 -25 10 0 7 -6 17 -14 21 -9 6 -10 10 -2 16 9 5 9
10 0 21 -17 21 52 6 71 -16 23 -26 48 -22 42 7 -2 13 -8 23 -13 23 -5 0 -9 7
-9 15 0 19 -38 20 -42 0 -2 -10 -7 -12 -18 -5 -12 8 -12 11 3 28 20 22 22 33
5 31 -7 -1 -20 -1 -28 0 -12 1 -11 4 3 12 10 6 41 8 70 5 36 -4 44 -3 27 3
l-25 9 24 1 c24 1 24 2 6 15 -11 8 -23 12 -27 10 -4 -2 -5 13 -2 33 2 21 2 32
-2 26 -3 -7 -13 -13 -22 -13 -15 0 -15 2 -2 10 13 9 13 11 0 20 -13 8 -12 10
3 10 9 0 17 7 17 15 0 8 4 15 9 15 5 0 7 -10 5 -22 -4 -20 -3 -20 4 -4 4 10
24 27 43 37 l34 19 -37 -4 c-27 -2 -35 0 -31 10 3 8 12 14 21 14 13 0 13 2 -2
13 -17 13 -18 14 -2 20 11 4 14 12 10 19 -5 8 -1 8 10 -1 10 -9 20 -11 24 -5
14 19 104 23 110 4 2 -6 8 -7 13 -4 6 3 2 12 -8 20 -17 12 -16 13 10 14 15 0
27 -5 27 -11 0 -5 5 -7 12 -3 20 13 68 13 61 0 -4 -6 1 -5 10 3 11 9 17 10 17
2 0 -6 5 -11 12 -11 6 0 8 3 5 7 -10 9 13 34 25 27 5 -3 16 0 25 8 12 9 15 10
9 0 -12 -20 23 -27 38 -7 10 13 20 16 42 11 22 -5 26 -4 14 4 -12 9 -12 10 5
7 11 -2 19 -9 18 -15z m930 -72 c3 -11 1 -20 -4 -20 -5 0 -9 9 -9 20 0 11 2
20 4 20 2 0 6 -9 9 -20z m677 -30 c0 -5 -2 -10 -4 -10 -3 0 -8 5 -11 10 -3 6
-1 10 4 10 6 0 11 -4 11 -10z m-2155 -48 c4 -10 0 -12 -11 -8 -8 3 -20 6 -25
6 -5 0 -9 4 -9 9 0 15 39 8 45 -7z m-65 -73 c0 -11 -4 -18 -10 -14 -5 3 -7 12
-3 20 7 21 13 19 13 -6z m2405 3 c-3 -3 -11 0 -18 7 -9 10 -8 11 6 5 10 -3 15
-9 12 -12z m-2348 -29 c-4 -3 -2 -12 4 -20 18 -21 -6 -15 -26 7 -18 19 -17 20
5 20 13 0 20 -3 17 -7z m2407 -39 c23 -9 20 -23 -4 -17 -11 3 -20 9 -20 14 0
11 3 11 24 3z m-2459 -52 c-3 -3 -11 0 -18 7 -9 10 -8 11 6 5 10 -3 15 -9 12
-12z m2435 -24 c0 -4 -7 -8 -15 -8 -8 0 -15 4 -15 8 0 5 7 9 15 9 8 0 15 -4
15 -9z m-2345 -56 c-8 -8 -35 20 -35 37 1 12 5 11 21 -8 11 -13 17 -26 14 -29z
m2415 10 c0 -9 -10 -11 -37 -7 -28 4 -33 3 -18 -4 l20 -10 -20 -1 c-19 -1 -19
-1 -1 -11 15 -9 16 -13 5 -20 -19 -12 -32 -11 -24 1 3 6 2 10 -3 10 -11 0 -21
29 -15 45 5 16 93 13 93 -3z m-86 -67 c5 -13 10 -14 27 -5 16 9 24 9 33 0 6
-6 7 -11 1 -10 -21 4 -36 0 -31 -9 3 -5 -1 -12 -10 -15 -8 -3 -12 -2 -9 4 3 5
-4 14 -15 20 -11 6 -20 15 -20 20 0 16 17 12 24 -5z m-2464 -45 c0 -5 -2 -10
-4 -10 -3 0 -8 5 -11 10 -3 6 -1 10 4 10 6 0 11 -4 11 -10z m27 -42 c-3 -8 -6
-5 -6 6 -1 11 2 17 5 13 3 -3 4 -12 1 -19z m-32 2 c3 -5 1 -10 -4 -10 -6 0
-11 5 -11 10 0 6 2 10 4 10 3 0 8 -4 11 -10z m2442 -17 c0 -27 0 -27 -10 -6
-9 21 -11 22 -23 5 -12 -15 -12 -15 -7 6 8 33 41 29 40 -5z m-2504 0 c-7 -2
-19 -2 -25 0 -7 3 -2 5 12 5 14 0 19 -2 13 -5z m137 -37 c33 -4 32 -4 24 -17
-4 -8 -9 -7 -15 2 -7 12 -9 12 -9 0 0 -9 -4 -10 -12 -3 -19 15 -102 27 -94 13
10 -15 -23 -26 -37 -12 -8 8 -8 11 2 11 7 0 9 4 6 10 -5 9 41 7 135 -4z m2497
-52 c-3 -3 -12 -4 -19 -1 -8 3 -5 6 6 6 11 1 17 -2 13 -5z m-2607 -8 c0 -3 -4
-8 -10 -11 -5 -3 -10 -1 -10 4 0 6 5 11 10 11 6 0 10 -2 10 -4z m-60 -10 c0
-3 -4 -8 -10 -11 -5 -3 -10 -1 -10 4 0 6 5 11 10 11 6 0 10 -2 10 -4z m113
-30 c9 5 9 4 1 -5 -6 -6 -19 -9 -28 -5 -14 5 -15 9 -4 15 7 5 14 4 16 -1 2 -6
9 -7 15 -4z m2537 -17 c0 -13 -44 -1 -46 13 -1 12 2 13 22 4 13 -6 24 -14 24
-17z m-2620 17 c0 -2 -7 -7 -16 -10 -8 -3 -12 -2 -9 4 6 10 25 14 25 6z m2540
-6 c0 -5 -5 -10 -11 -10 -5 0 -7 5 -4 10 3 6 8 10 11 10 2 0 4 -4 4 -10z m120
-26 c0 -8 -5 -12 -10 -9 -6 4 -8 11 -5 16 9 14 15 11 15 -7z m-2616 -18 c-6
-16 -24 -23 -24 -8 0 10 22 33 27 28 2 -2 1 -11 -3 -20z m2516 -1 c0 -8 -4
-15 -10 -15 -5 0 -10 7 -10 15 0 8 5 15 10 15 6 0 10 -7 10 -15z m-71 -66
c-12 -7 -12 -9 0 -9 8 0 12 -2 9 -5 -3 -3 -13 -3 -22 1 -13 5 -14 9 -5 20 6 8
16 11 21 8 6 -4 5 -10 -3 -15z m81 -24 c-7 -8 -16 -12 -21 -9 -5 3 -6 -2 -3
-10 4 -11 0 -16 -15 -16 -22 0 -28 14 -11 25 6 4 8 10 5 15 -3 5 0 12 6 16 8
4 9 3 5 -4 -5 -8 1 -12 16 -11 13 0 17 3 9 6 -11 5 -11 7 0 14 18 11 24 -7 9
-26z m27 -20 c0 -8 -6 -15 -14 -15 -14 0 -17 12 -6 23 11 11 20 8 20 -8z m102
-31 c2 -2 -7 -4 -22 -4 -14 0 -29 5 -32 10 -6 10 42 4 54 -6z m-159 -15 c0
-11 -4 -17 -10 -14 -5 3 -10 1 -10 -5 0 -6 -4 -8 -10 -5 -15 9 -12 25 6 25 8
0 12 5 9 10 -3 6 -1 10 4 10 6 0 11 -9 11 -21z m-2558 -7 c-7 -2 -10 -8 -6
-13 3 -5 1 -9 -5 -9 -5 0 -9 9 -8 19 1 12 6 17 16 13 10 -4 11 -7 3 -10z
m2613 8 c18 -8 17 -9 -7 -9 -16 -1 -28 4 -28 9 0 12 8 12 35 0z m25 -25 c0 -2
-10 -9 -22 -15 -22 -11 -22 -10 -4 4 21 17 26 19 26 11z m-2569 -38 c-10 -9
-11 -8 -5 6 3 10 9 15 12 12 3 -3 0 -11 -7 -18z m84 13 c3 -5 -1 -10 -10 -10
-9 0 -13 5 -10 10 3 6 8 10 10 10 2 0 7 -4 10 -10z m2378 -44 c4 -10 1 -13 -8
-9 -8 3 -12 9 -9 14 7 12 11 11 17 -5z m-2170 -50 c3 -8 -2 -16 -14 -19 -16
-4 -17 -2 -8 14 12 23 15 23 22 5z m2037 -30 c0 -2 -7 -7 -16 -10 -8 -3 -12
-2 -9 4 6 10 25 14 25 6z m-850 -560 c0 -3 -4 -8 -10 -11 -5 -3 -10 -1 -10 4
0 6 5 11 10 11 6 0 10 -2 10 -4z m-358 -48 c-8 -8 -9 -4 -5 13 4 13 8 18 11
10 2 -7 -1 -18 -6 -23z m103 16 c13 -5 16 -4 11 4 -5 8 0 12 14 12 18 0 19 -3
10 -21 -6 -11 -17 -22 -25 -25 -16 -7 -7 -44 11 -44 7 0 11 -6 8 -13 -4 -10 4
-13 28 -9 l33 4 -22 -21 c-13 -12 -23 -32 -23 -45 0 -13 -6 -29 -14 -35 -23
-20 -50 28 -36 64 8 20 7 26 -2 22 -20 -7 -50 13 -44 28 3 8 0 15 -6 17 -7 3
-8 10 -4 17 5 7 15 10 23 7 8 -3 11 -1 8 4 -3 6 -1 10 4 10 6 0 11 5 11 11 0
5 -4 8 -10 4 -13 -8 -60 5 -60 17 0 9 52 4 85 -8z m60 -42 c-8 -8 -25 10 -19
20 4 6 9 5 15 -3 4 -7 6 -15 4 -17z m44 7 c-7 -4 -17 -5 -22 -2 -5 3 -3 9 4
14 7 4 17 5 22 2 5 -3 3 -9 -4 -14z m-55 -631 c-7 -11 -51 -10 -58 1 -3 5 10
9 28 8 19 0 33 -5 30 -9z m33 -41 c4 -6 -2 -8 -18 -4 -13 4 -28 7 -32 7 -5 0
-6 4 -3 9 7 11 44 3 53 -12z m23 -19 c12 4 13 2 3 -9 -15 -15 -17 -53 -3 -44
6 3 10 2 10 -4 0 -5 -5 -13 -10 -16 -6 -4 -8 -11 -5 -16 4 -5 0 -9 -7 -9 -10
0 -9 -3 2 -11 12 -8 12 -12 2 -16 -10 -4 -9 -8 5 -19 16 -12 16 -13 2 -14 -14
0 -35 -28 -27 -35 2 -1 12 -7 23 -13 15 -9 16 -11 4 -12 -9 0 -24 -9 -34 -20
-14 -15 -15 -19 -4 -15 10 4 15 -1 15 -15 0 -11 -3 -20 -7 -20 -4 0 -6 -8 -5
-17 1 -12 -5 -17 -18 -15 -10 2 -23 -2 -27 -10 -7 -10 -9 -10 -9 0 0 6 -5 12
-11 12 -8 0 -8 -4 0 -14 7 -8 9 -25 5 -40 -4 -17 -2 -26 6 -26 7 0 6 -5 -4
-15 -8 -8 -23 -15 -33 -15 -17 1 -17 1 0 14 20 16 22 26 4 26 -7 0 -20 -12
-29 -27 -13 -21 -18 -23 -18 -10 0 19 -11 22 -27 6 -7 -7 -9 -2 -5 18 3 15 7
22 9 16 3 -7 12 -13 21 -12 11 0 12 2 4 6 -6 2 -10 9 -7 13 3 5 -4 14 -15 20
-11 6 -20 8 -20 4 0 -4 -3 -4 -7 -1 -3 4 2 15 11 26 10 11 18 38 19 63 2 36
-1 43 -15 40 -27 -4 -21 7 8 18 18 7 31 7 39 0 16 -14 30 4 18 23 -4 6 -8 19
-8 28 0 9 -6 23 -14 32 -7 10 -9 17 -4 17 12 0 35 49 28 60 -3 4 5 10 16 13
14 4 20 11 16 21 -4 10 -1 13 9 9 7 -3 14 -14 14 -24 0 -10 5 -19 10 -19 6 0
10 5 10 10 0 6 9 10 20 10 11 0 20 5 20 10 0 6 -11 10 -25 10 -14 0 -25 4 -25
9 0 6 12 6 28 2 15 -4 34 -6 42 -3z m-143 -24 c-3 -3 -12 -4 -19 -1 -8 3 -5 6
6 6 11 1 17 -2 13 -5z m-560 -90 c-13 -13 14 -44 38 -44 13 0 27 -5 30 -10 4
-7 -2 -9 -17 -5 -20 5 -23 2 -25 -26 -1 -18 -8 -36 -14 -39 -6 -5 1 -12 19
-18 17 -6 32 -10 34 -9 2 1 -1 -3 -7 -8 -14 -14 -17 -35 -5 -35 6 0 10 -5 10
-11 0 -6 -7 -9 -15 -5 -15 5 -18 -1 -18 -36 0 -10 -15 -23 -39 -32 -45 -19
-62 -20 -52 -5 3 6 -5 3 -20 -6 -15 -10 -38 -16 -55 -13 -17 2 -28 1 -25 -3 4
-8 -131 -17 -160 -11 -9 2 -16 10 -16 18 0 12 -4 12 -25 -2 -15 -10 -32 -13
-47 -9 -27 9 -60 40 -51 49 7 7 -10 9 -44 6 -25 -2 -30 9 -11 28 9 9 9 12 0
12 -7 0 -12 -4 -12 -10 0 -5 -4 -10 -9 -10 -5 0 -8 11 -8 25 0 13 3 22 8 19
14 -9 10 3 -7 20 -14 15 -14 16 4 16 11 0 22 6 25 13 6 15 -17 50 -26 40 -4
-3 -7 2 -7 13 -1 19 -1 19 -15 0 -13 -17 -15 -18 -15 -3 0 19 41 33 67 23 15
-6 15 -8 3 -17 -11 -7 -7 -9 15 -7 17 2 36 10 42 18 11 13 13 12 19 -7 3 -12
17 -24 30 -27 14 -4 22 -11 19 -16 -3 -6 -1 -10 4 -10 6 0 11 7 11 15 0 8 5
15 11 15 6 0 9 6 6 14 -7 19 12 25 41 15 15 -6 21 -5 17 1 -3 6 -1 10 5 10 6
0 13 -7 16 -15 4 -8 11 -12 18 -8 13 9 18 10 46 12 11 0 19 7 18 14 -2 7 10
13 27 15 17 2 39 11 49 20 11 10 16 12 13 5 -4 -6 -2 -15 4 -19 6 -4 16 1 21
10 5 9 16 16 23 16 8 0 15 5 15 10 0 6 10 10 22 10 12 0 18 -3 15 -6z m-517
-44 c0 -5 -7 -10 -16 -10 -8 0 -12 5 -9 10 3 6 10 10 16 10 5 0 9 -4 9 -10z
m-70 -16 c0 -2 -11 -4 -25 -4 -14 0 -25 4 -25 9 0 4 11 6 25 3 14 -2 25 -6 25
-8z m-80 2 c0 -3 -4 -8 -10 -11 -5 -3 -10 -1 -10 4 0 6 5 11 10 11 6 0 10 -2
10 -4z m1210 -6 c0 -5 -4 -10 -10 -10 -5 0 -10 5 -10 10 0 6 5 10 10 10 6 0
10 -4 10 -10z m-1156 -25 c-5 -11 -2 -13 10 -9 12 5 15 2 10 -10 -5 -12 -2
-15 10 -10 17 6 20 -4 10 -29 -6 -17 -47 -11 -41 7 2 6 0 19 -5 29 -5 9 -6 22
-3 27 9 15 15 12 9 -5z m239 4 c-8 -8 -16 -8 -30 0 -16 9 -14 10 12 11 21 0
26 -3 18 -11z m2062 -18 c-3 -5 4 -12 15 -16 11 -3 19 -11 17 -17 -1 -6 4 -13
11 -15 6 -3 12 3 12 12 0 9 5 13 10 10 6 -4 8 -10 6 -14 -3 -4 6 -18 19 -29
14 -12 25 -26 25 -32 0 -8 80 -10 80 -2 0 1 -12 7 -26 12 -15 6 -23 15 -19 22
4 7 0 5 -8 -4 -17 -22 -24 -23 -24 -3 0 8 7 17 16 19 40 13 80 15 86 6 4 -6
-5 -10 -19 -10 -14 0 -26 -4 -26 -10 0 -5 8 -10 19 -10 22 0 36 -50 18 -62 -8
-5 -8 -8 -1 -8 6 0 19 9 29 20 16 18 14 25 -7 21 -5 0 -8 4 -8 9 0 6 9 10 20
10 11 0 20 -7 20 -15 0 -8 5 -15 10 -15 6 0 10 5 10 11 0 5 5 7 10 4 15 -9 30
4 24 20 -4 8 -10 12 -15 9 -5 -3 -9 0 -9 5 0 13 29 14 48 2 28 -17 -6 -66 -38
-56 -11 3 -20 2 -20 -3 0 -5 13 -12 29 -14 17 -2 28 -1 25 4 -3 4 2 8 10 8 10
0 13 -6 10 -15 -4 -10 0 -15 12 -15 13 0 15 -3 7 -8 -7 -4 -10 -17 -7 -29 5
-19 9 -20 25 -10 23 14 26 32 4 23 -19 -7 -19 -4 3 22 l19 21 20 -23 c16 -18
18 -27 10 -36 -9 -9 -6 -10 14 -5 17 4 30 2 34 -6 5 -8 4 -10 -4 -5 -6 4 -19
2 -27 -5 -8 -6 -17 -9 -20 -6 -4 3 -13 0 -21 -8 -8 -8 -23 -15 -33 -15 -13 0
-17 -5 -14 -15 4 -10 0 -15 -12 -16 -11 0 -44 -2 -74 -5 -30 -2 -62 -4 -70 -4
-8 0 -28 0 -45 -1 -121 -4 -213 2 -255 18 -15 6 -30 8 -83 11 -19 1 -26 6 -21
14 5 8 2 9 -10 5 -17 -7 -55 7 -66 24 -3 5 -21 15 -40 23 -19 8 -29 15 -21 16
11 0 11 3 1 15 -8 10 -9 15 -1 15 6 0 10 11 9 24 -2 16 -7 22 -18 19 -12 -4
-13 -3 -1 5 9 7 23 7 40 0 14 -5 22 -6 18 -2 -4 4 -1 14 6 22 6 9 7 13 2 10
-6 -4 -17 -2 -25 3 -13 8 -13 10 0 20 13 9 12 10 -2 5 -10 -3 -20 -1 -23 4 -4
6 5 10 19 10 14 0 26 -4 26 -10 0 -5 7 -7 15 -4 8 4 22 1 30 -6 12 -10 15 -9
15 6 1 16 3 15 16 -6 8 -14 13 -18 10 -9 -3 12 0 15 14 12 10 -3 21 0 24 6 4
6 12 11 18 11 6 0 3 -9 -7 -20 -18 -20 -18 -20 14 -9 18 6 35 9 38 5 4 -3 1
-6 -6 -6 -7 0 -9 -4 -6 -10 3 -5 -2 -10 -12 -11 -10 0 -13 -3 -6 -5 6 -3 26 2
43 11 18 9 29 12 26 7 -3 -6 1 -12 9 -16 18 -6 27 7 19 28 -8 22 12 20 26 -1
11 -17 11 -17 6 0 -3 10 -6 23 -6 28 0 5 -7 9 -15 9 -16 0 -20 12 -8 23 9 10
15 8 8 -2z m-235 -11 c0 -5 -8 -10 -17 -10 -15 0 -16 2 -3 10 19 12 20 12 20
0z m398 -4 c-2 -1 -12 -8 -22 -16 -18 -14 -18 -14 -6 7 8 12 18 19 23 16 4 -3
7 -6 5 -7z m-1788 -6 c0 -5 -2 -10 -4 -10 -3 0 -8 5 -11 10 -3 6 -1 10 4 10 6
0 11 -4 11 -10z m2035 -99 c3 -6 -4 -15 -15 -21 -16 -8 -20 -8 -20 3 0 25 23
36 35 18z m-2020 -19 c-3 -3 -11 0 -18 7 -9 10 -8 11 6 5 10 -3 15 -9 12 -12z
m1295 8 c0 -5 -7 -10 -16 -10 -8 0 -12 5 -9 10 3 6 10 10 16 10 5 0 9 -4 9
-10z m-725 -30 c3 -5 -1 -10 -10 -10 -9 0 -13 5 -10 10 3 6 8 10 10 10 2 0 7
-4 10 -10z m1873 -42 c-3 -7 -13 -15 -24 -17 -16 -3 -17 -1 -5 13 16 19 34 21
29 4z m-1998 -28 c0 -5 -5 -10 -11 -10 -5 0 -7 5 -4 10 3 6 8 10 11 10 2 0 4
-4 4 -10z m50 -34 c0 -11 -19 -15 -25 -6 -3 5 1 10 9 10 9 0 16 -2 16 -4z m22
-22 c-12 -8 -28 -13 -35 -11 -7 3 -5 6 6 6 9 1 17 6 17 11 0 6 8 10 17 10 14
0 13 -3 -5 -16z m1298 -28 c-7 -7 -13 -7 -20 0 -6 6 -3 10 10 10 13 0 16 -4
10 -10z m-2731 -13 c-6 -7 -15 -10 -20 -7 -13 8 -3 21 15 21 12 0 13 -4 5 -14z
m136 7 c5 -8 12 -7 23 2 9 7 13 8 9 2 -4 -7 5 -14 24 -18 20 -4 28 -10 23 -17
-4 -8 -3 -9 4 -5 7 4 12 14 12 22 0 17 16 19 26 2 5 -7 3 -8 -7 -3 -14 9 -14
9 19 -35 2 -3 2 4 0 15 -3 18 3 20 54 20 32 0 58 3 58 6 0 3 17 3 38 1 20 -3
72 -5 114 -5 42 -1 75 -3 73 -7 -2 -3 0 -12 6 -20 7 -13 9 -13 10 0 1 8 1 18
1 21 -1 3 5 6 13 6 8 0 12 -4 9 -8 -6 -11 84 -4 117 9 20 8 33 7 54 -4 15 -8
33 -14 41 -14 7 0 18 -9 24 -21 7 -12 18 -18 26 -15 17 6 20 -29 3 -39 -6 -4
-8 -13 -5 -21 5 -13 -7 -18 -41 -17 -7 1 -10 -4 -7 -9 3 -5 12 -7 20 -4 29 11
13 -22 -17 -34 -19 -8 -35 -24 -41 -43 -8 -20 -13 -25 -19 -16 -5 9 -10 5 -14
-13 -4 -15 -13 -29 -21 -32 -8 -3 -14 -11 -14 -18 0 -9 3 -8 10 2 6 9 10 10
10 3 0 -17 -12 -21 -40 -12 -16 4 -19 7 -7 8 21 1 23 21 2 21 -8 0 -17 -11
-21 -25 -3 -14 -14 -25 -23 -25 -20 -1 -45 -20 -49 -39 -2 -9 4 -12 17 -8 11
3 22 -1 25 -9 4 -10 -3 -13 -27 -10 -18 2 -38 -1 -44 -6 -9 -8 -13 -7 -13 3 0
9 -3 10 -8 4 -4 -5 -18 -10 -31 -10 -13 0 -26 -5 -28 -11 -2 -6 10 -8 33 -6
46 6 43 -18 -5 -30 -17 -5 -29 -13 -25 -19 4 -6 11 -6 20 2 12 10 12 7 1 -20
-7 -17 -24 -39 -37 -48 -13 -9 -20 -11 -16 -5 4 8 -3 10 -23 7 -22 -2 -28 0
-24 11 3 8 9 11 14 8 5 -3 9 2 9 10 0 21 -16 21 -24 0 -3 -8 -10 -13 -15 -10
-5 4 -12 0 -14 -6 -3 -8 -6 -6 -6 5 -1 9 4 17 9 17 6 0 10 5 10 10 0 7 -6 7
-20 0 -11 -6 -20 -8 -20 -5 0 4 -7 -1 -16 -9 -18 -18 -30 -20 -39 -6 -4 6 -11
7 -17 4 -7 -4 -8 -2 -4 4 8 14 -30 36 -50 28 -8 -3 -14 -1 -14 3 0 5 -12 14
-27 19 -18 7 -22 11 -10 11 9 1 17 6 17 11 0 6 5 10 11 10 5 0 7 -4 4 -10 -3
-5 -2 -10 3 -10 21 0 18 26 -4 37 -21 10 -24 9 -24 -9 0 -17 -3 -18 -15 -8
-12 10 -16 9 -21 -4 -3 -9 -12 -16 -20 -16 -8 0 -14 -5 -14 -11 0 -5 -4 -7
-10 -4 -5 3 -10 11 -10 16 0 6 5 7 10 4 6 -3 10 -1 10 4 0 16 -20 13 -26 -4
-5 -12 -9 -12 -29 3 -13 9 -20 21 -17 26 3 5 -3 6 -14 3 -18 -7 -18 -7 0 8 11
8 15 15 9 15 -6 0 -20 18 -30 40 -20 39 -20 39 0 29 14 -8 22 -7 31 2 8 9 8
10 -2 5 -8 -5 -20 1 -32 14 -10 12 -21 21 -24 21 -27 -3 -34 2 -32 24 1 28 11
33 19 11 3 -8 1 -17 -6 -20 -7 -2 -5 -5 5 -5 9 -1 20 4 23 9 3 6 1 10 -4 10
-6 0 -11 5 -11 11 0 5 4 8 9 5 4 -3 17 1 27 9 18 13 18 14 -6 8 -21 -5 -23 -3
-12 8 17 18 15 34 -2 20 -10 -8 -16 -9 -21 -1 -3 6 -11 8 -16 5 -5 -4 -9 -1
-9 4 0 14 13 14 28 -1 9 -9 12 -8 12 5 0 9 -8 17 -17 18 -15 0 -15 2 2 8 11 5
27 6 35 3 11 -4 10 -1 -3 12 -14 14 -15 21 -6 32 6 8 15 11 20 8 5 -3 20 7 33
23 24 28 25 28 40 8 12 -17 17 -18 28 -6 7 8 8 11 2 8 -7 -4 -14 -1 -17 7 -4
10 0 12 14 9 12 -3 19 0 19 8 0 9 -13 15 -31 16 -36 3 -44 7 -34 22 8 14 22
14 30 1z m1203 -49 c-2 -9 3 -15 10 -13 8 1 11 -2 7 -8 -4 -6 6 -10 25 -10 17
0 29 4 26 9 -3 4 6 6 19 3 14 -2 25 -11 25 -19 0 -13 -3 -13 -15 -3 -9 7 -16
11 -18 9 -26 -45 -26 -47 -7 -42 11 3 17 9 14 14 -3 5 2 6 10 3 8 -3 17 -12
20 -19 3 -9 0 -12 -10 -8 -8 3 -22 -3 -30 -13 -9 -11 -13 -13 -9 -6 4 7 0 12
-9 12 -22 0 -20 -26 4 -61 13 -17 26 -26 35 -22 8 3 15 1 15 -4 0 -6 10 -15
23 -21 17 -8 18 -11 5 -11 -10 -1 -18 -8 -18 -17 0 -8 5 -12 10 -9 6 3 10 1
10 -4 0 -6 -5 -11 -11 -11 -5 0 -7 -5 -3 -11 3 -6 15 -9 25 -6 25 7 24 0 -6
-39 -21 -28 -22 -33 -8 -28 17 5 17 5 0 -6 -9 -6 -15 -16 -11 -22 4 -6 -1 -8
-15 -3 -15 5 -21 2 -21 -9 0 -9 -5 -16 -11 -16 -5 0 -7 -4 -4 -10 6 -9 2 -12
-27 -14 -7 -1 -16 -5 -19 -10 -4 -5 -21 -1 -38 7 -18 9 -38 14 -46 11 -7 -3
-16 -1 -20 5 -3 6 -1 11 5 11 6 0 8 5 5 10 -4 6 -14 8 -24 5 -9 -3 -26 2 -37
11 -16 13 -16 15 -1 10 9 -3 17 0 18 7 0 8 2 7 6 -2 4 -11 7 -11 14 0 4 7 3
21 -2 32 -8 14 -7 18 5 15 8 -2 15 0 15 5 2 21 0 27 -10 27 -5 0 -8 -4 -5 -9
4 -5 -1 -8 -9 -7 -27 4 -21 21 8 24 23 3 26 6 17 17 -7 8 -8 20 -4 27 9 13 10
18 13 53 1 15 3 17 10 6 7 -10 13 -11 27 -2 16 9 16 10 3 11 -9 0 -22 7 -29
15 -10 13 -9 15 9 15 11 0 21 -5 21 -11 0 -5 5 -7 11 -3 8 5 4 13 -12 26 -22
18 -22 18 -2 9 14 -7 24 -8 28 -1 3 5 1 10 -4 10 -6 0 -11 5 -11 11 0 6 7 9
15 5 8 -3 15 -1 15 4 0 6 8 10 18 10 14 0 15 2 2 10 -9 6 -17 5 -22 -3 -5 -9
-8 -8 -8 3 0 9 -9 23 -20 33 -24 20 -26 34 -5 34 8 0 14 -7 13 -16z m1047 -11
c3 -5 1 -10 -4 -10 -6 0 -11 5 -11 10 0 6 2 10 4 10 3 0 8 -4 11 -10z m105 -6
c25 -3 67 -12 93 -19 38 -11 52 -12 68 -2 22 13 56 -2 51 -23 -1 -6 2 -9 8 -5
6 3 8 11 4 16 -4 7 7 8 31 3 22 -4 36 -3 32 2 -3 5 6 9 19 9 14 0 24 -6 25
-15 0 -10 2 -11 6 -3 3 9 10 10 23 3 11 -6 21 -6 24 -1 3 5 17 9 31 9 18 0 25
-6 25 -19 0 -11 5 -19 10 -19 6 0 10 5 10 10 0 6 8 10 18 8 10 -2 16 2 14 10
-1 8 2 11 8 7 8 -5 6 -13 -4 -24 -18 -20 -20 -37 -6 -46 6 -4 7 1 3 11 -4 12
-3 15 6 10 7 -4 10 -3 9 5 -2 6 3 14 10 16 6 3 12 0 12 -6 0 -6 6 -11 13 -11
8 0 14 -6 15 -12 1 -7 4 -25 8 -40 5 -21 2 -27 -18 -34 -12 -4 -29 -7 -37 -5
-11 2 -10 -2 2 -14 9 -9 20 -14 24 -12 13 8 9 -67 -5 -81 -7 -8 -10 -18 -7
-23 4 -5 1 -9 -5 -9 -6 0 -8 -4 -5 -10 3 -5 0 -10 -7 -10 -7 0 -26 -14 -42
-31 -22 -22 -26 -33 -17 -38 10 -6 9 -10 -2 -14 -8 -3 -20 0 -26 6 -8 8 -11 7
-11 -6 0 -9 -7 -17 -16 -17 -8 0 -13 -3 -10 -8 2 -4 -12 -18 -31 -31 l-36 -23
7 26 c5 21 3 24 -11 19 -10 -4 -14 -2 -10 4 5 8 -4 8 -28 3 -19 -4 -33 -4 -30
0 7 11 -4 17 -40 21 -17 2 -29 -1 -28 -7 1 -5 -7 -11 -18 -11 -10 -1 -19 5
-19 13 0 8 -3 13 -7 13 -22 -4 -30 3 -29 24 1 16 -5 23 -21 25 -27 4 -29 15
-7 36 14 15 13 17 -15 22 -17 4 -31 13 -31 20 0 13 -14 19 -35 14 -37 -8 -74
-6 -72 4 1 6 -8 10 -20 9 -22 -3 -22 -2 -5 16 9 10 20 16 25 14 4 -2 7 2 7 10
0 7 -16 20 -36 27 -32 13 -34 15 -18 27 16 12 16 13 -5 13 -18 0 -22 4 -18 20
3 12 1 18 -5 14 -5 -3 -7 -15 -5 -26 4 -12 1 -18 -6 -15 -7 2 -12 9 -12 16 0
7 -8 18 -17 25 -18 13 -26 32 -9 22 5 -4 17 -3 27 1 16 6 14 9 -11 19 -26 12
-27 13 -7 14 12 0 22 2 22 4 0 2 3 13 6 23 6 16 5 16 -10 -2 -14 -16 -17 -16
-12 -3 3 9 0 19 -7 22 -14 7 58 -3 76 -10 7 -2 21 3 32 12 11 8 14 13 8 9 -7
-3 -13 -1 -13 6 0 7 8 9 23 5 12 -4 42 -9 67 -12z m-1176 -40 c3 -8 2 -12 -4
-9 -6 3 -10 10 -10 16 0 14 7 11 14 -7z m-1334 -16 c0 -19 -2 -20 -10 -8 -13
19 -13 30 0 30 6 0 10 -10 10 -22z m3130 8 c0 -2 -7 -7 -16 -10 -8 -3 -12 -2
-9 4 6 10 25 14 25 6z m-1660 -57 c0 -6 -4 -7 -10 -4 -5 3 -10 11 -10 16 0 6
5 7 10 4 6 -3 10 -11 10 -16z m-10 -29 c0 -5 -2 -10 -4 -10 -3 0 -8 5 -11 10
-3 6 -1 10 4 10 6 0 11 -4 11 -10z m1667 -106 c-3 -3 -12 -4 -19 -1 -8 3 -5 6
6 6 11 1 17 -2 13 -5z m-1903 -39 c3 -8 1 -15 -4 -15 -6 0 -10 7 -10 15 0 8 2
15 4 15 2 0 6 -7 10 -15z m1326 -39 c0 -8 -5 -18 -12 -22 -8 -5 -9 -2 -5 9 3
10 2 17 -3 17 -6 0 -10 -4 -10 -10 0 -5 -8 -10 -17 -9 -11 0 -13 3 -5 6 6 2
10 9 6 14 -3 5 6 9 20 9 16 0 26 -6 26 -14z m-1906 -41 c3 -8 1 -15 -4 -15 -6
0 -10 7 -10 15 0 8 2 15 4 15 2 0 6 -7 10 -15z m2331 -65 c3 -5 -1 -10 -10
-10 -9 0 -13 5 -10 10 3 6 8 10 10 10 2 0 7 -4 10 -10z m-2382 -25 c-8 -22
-22 -18 -16 5 3 11 9 17 14 15 4 -3 6 -12 2 -20z m237 16 c0 -6 -4 -13 -10
-16 -5 -3 -10 1 -10 9 0 9 5 16 10 16 6 0 10 -4 10 -9z m1910 0 c0 -6 -4 -12
-8 -15 -5 -3 -9 1 -9 9 0 8 4 15 9 15 4 0 8 -4 8 -9z m-1941 -33 c-12 -8 20
-4 57 7 6 2 9 -9 6 -26 -3 -22 0 -29 12 -29 9 0 13 -6 10 -14 -3 -8 -12 -12
-20 -9 -8 3 -14 0 -14 -7 0 -6 4 -9 8 -6 4 2 14 1 20 -3 10 -6 9 -11 -4 -22
-15 -12 -17 -12 -9 0 5 9 4 12 -3 7 -17 -10 -2 -36 22 -36 17 0 18 -2 6 -10
-9 -6 -18 -6 -24 0 -13 13 -29 13 -21 0 3 -5 1 -10 -5 -10 -6 0 -8 -5 -5 -10
4 -6 10 -8 15 -5 5 3 11 -4 15 -15 3 -11 11 -20 16 -20 18 0 9 -18 -12 -23
-12 -3 -18 -10 -15 -16 4 -6 14 -8 24 -5 14 5 14 4 3 -4 -8 -6 -20 -8 -28 -5
-7 3 -13 0 -13 -6 0 -7 -7 -7 -25 1 -18 8 -25 19 -25 38 0 14 -7 35 -16 46
-15 19 -15 18 -9 -3 4 -15 0 -25 -12 -32 -10 -6 -13 -11 -6 -11 15 0 63 -47
63 -61 0 -6 5 -7 10 -4 6 3 10 4 10 1 0 -2 3 -11 6 -20 3 -9 1 -16 -6 -16 -6
0 -8 5 -5 10 3 6 -1 10 -9 10 -9 0 -16 5 -16 11 0 7 -9 9 -24 5 -13 -3 -26 -2
-28 4 -2 6 -9 6 -18 0 -12 -7 -10 -11 10 -20 24 -10 24 -10 -4 -5 -15 3 -35
13 -43 20 -19 20 -19 19 -17 -13 1 -18 -3 -29 -12 -29 -9 0 -10 5 -3 19 7 14
6 18 -6 18 -8 0 -15 5 -15 10 0 6 5 10 10 10 6 0 10 7 10 16 0 8 5 12 10 9 6
-3 10 -1 10 4 0 15 -13 14 -28 -1 -10 -10 -15 -10 -22 2 -6 9 -5 19 0 24 6 6
10 18 10 28 0 10 5 18 11 18 5 0 8 4 4 9 -3 6 1 13 8 18 7 4 17 16 20 26 5 13
13 17 29 13 18 -4 16 -3 -4 7 -26 12 -26 13 -8 25 13 8 20 9 20 1 0 -5 4 -8
10 -4 5 3 7 12 3 20 -3 8 0 15 6 15 6 0 11 6 11 13 0 20 40 58 52 51 7 -4 5
-10 -3 -16z m1946 -1 c27 -4 27 -5 -4 -3 -21 0 -36 7 -38 16 -3 10 -2 11 4 3
4 -6 22 -13 38 -16z m-2328 -13 c2 -5 -8 -11 -22 -12 -22 -2 -24 0 -13 13 14
15 30 15 35 -1z m297 -19 c3 -8 1 -15 -4 -15 -6 0 -10 7 -10 15 0 8 2 15 4 15
2 0 6 -7 10 -15z m-227 -1 c-3 -3 -12 -4 -19 -1 -8 3 -5 6 6 6 11 1 17 -2 13
-5z m473 -134 c0 -5 -5 -10 -11 -10 -5 0 -7 5 -4 10 3 6 8 10 11 10 2 0 4 -4
4 -10z m-30 -85 c0 -18 -17 -28 -25 -15 -3 5 0 10 7 11 10 0 10 2 1 6 -7 2
-13 9 -13 14 0 4 7 6 15 3 8 -4 15 -12 15 -19z m-30 -40 c10 -12 10 -15 -4
-15 -9 0 -16 5 -16 11 0 5 -5 7 -12 3 -7 -4 -8 -3 -4 4 10 16 21 15 36 -3z
m186 -4 c-8 -13 31 -44 45 -35 8 4 10 3 5 -5 -4 -6 -19 -11 -34 -10 -15 0 -34
-1 -42 -2 -25 -4 -64 1 -58 6 3 3 22 8 43 10 39 5 61 15 33 15 -8 0 -15 7 -15
15 0 8 7 15 14 15 8 0 12 -4 9 -9z m-460 -26 c14 -13 13 -15 -4 -15 -10 0 -19
7 -19 15 0 8 2 15 4 15 3 0 11 -7 19 -15z m84 -5 c0 -5 -4 -10 -10 -10 -5 0
-10 5 -10 10 0 6 5 10 10 10 6 0 10 -4 10 -10z m200 0 c0 -5 -7 -10 -15 -10
-8 0 -15 5 -15 10 0 6 7 10 15 10 8 0 15 -4 15 -10z m55 0 c3 -5 2 -10 -4 -10
-5 0 -13 5 -16 10 -3 6 -2 10 4 10 5 0 13 -4 16 -10z m264 -6 c2 -2 -3 -4 -12
-4 -8 0 -18 -9 -22 -19 -7 -22 -45 -35 -59 -21 -7 7 -1 10 16 10 15 0 30 5 34
12 5 8 2 9 -9 5 -21 -8 -34 12 -16 24 12 7 57 2 68 -7z m-447 -1 c-10 -4 -10
-8 -1 -19 7 -8 7 -14 1 -14 -12 0 -23 26 -15 34 4 3 11 6 17 5 6 0 5 -3 -2 -6z
m-37 -13 c-3 -5 -11 -10 -16 -10 -6 0 -7 5 -4 10 3 6 11 10 16 10 6 0 7 -4 4
-10z m375 -20 c0 -5 -2 -10 -4 -10 -3 0 -8 5 -11 10 -3 6 -1 10 4 10 6 0 11
-4 11 -10z m-37 -17 c-5 -13 -2 -15 11 -10 9 4 15 3 11 -2 -3 -5 13 -12 36
-16 22 -4 37 -10 34 -13 -6 -7 -10 -8 -36 -11 -5 0 -8 -5 -4 -11 3 -6 15 -6
29 0 13 5 26 7 28 5 2 -2 16 -6 32 -9 16 -3 26 -3 23 1 -3 3 1 12 9 21 13 12
17 13 24 2 4 -7 13 -9 20 -5 9 5 11 4 6 -3 -4 -7 -13 -12 -20 -12 -8 0 -19 -6
-25 -14 -13 -15 -47 -16 -69 -2 -7 4 -25 5 -39 1 -24 -6 -25 -7 -7 -20 13 -9
21 -10 26 -2 4 7 11 7 23 -3 14 -12 18 -12 26 1 8 11 9 10 7 -5 -2 -12 4 -20
15 -21 9 -2 15 1 12 5 -7 11 16 50 28 50 4 0 5 -6 1 -12 -4 -7 6 -1 23 15 29
27 50 36 38 17 -3 -5 3 -10 14 -10 12 0 21 -4 21 -8 0 -5 -13 -7 -28 -4 -18 2
-33 -2 -42 -14 -13 -15 -13 -16 7 -10 12 4 24 2 28 -3 4 -7 14 -7 31 -1 22 9
27 6 42 -20 17 -29 50 -37 44 -11 -2 9 3 11 13 7 9 -3 13 -2 10 4 -4 6 8 10
27 10 18 0 47 1 63 2 17 1 42 -2 58 -6 16 -5 27 -4 27 2 0 5 -11 10 -25 10
-14 0 -29 3 -33 7 -10 9 30 37 45 31 7 -3 13 0 13 5 0 6 9 9 20 6 11 -3 23 0
27 5 4 7 1 8 -7 3 -9 -5 -11 -4 -6 3 10 16 22 15 40 -3 10 -10 17 -12 21 -5 5
8 11 7 21 -1 10 -8 14 -8 14 0 0 16 35 14 50 -4 15 -18 3 -38 -17 -31 -10 4
-13 2 -10 -8 3 -8 1 -16 -5 -18 -5 -2 -2 -10 8 -18 10 -8 15 -10 11 -4 -3 6 5
16 18 22 21 10 25 9 26 -6 1 -9 0 -21 -1 -27 -1 -5 -3 -16 -3 -22 0 -14 0 -14
-44 -18 -24 -2 -30 1 -26 12 5 13 2 13 -14 5 -25 -14 -39 -3 -17 12 13 10 10
12 -16 14 -29 2 -30 1 -19 -19 9 -17 8 -23 -2 -30 -22 -13 -30 -11 -36 11 -4
15 -11 19 -27 15 -15 -5 -17 -4 -7 3 9 7 10 12 2 16 -16 10 -30 -1 -27 -21 4
-22 -23 -53 -41 -46 -10 4 -11 9 -3 18 8 9 6 14 -5 19 -14 5 -20 -9 -16 -41 1
-8 -5 -10 -14 -7 -8 3 -12 11 -8 17 3 6 1 7 -6 3 -16 -10 -82 -15 -76 -6 10
15 -20 28 -32 15 -10 -11 -10 -14 0 -18 7 -2 9 -8 5 -12 -4 -4 -14 -3 -22 4
-11 9 -17 8 -29 -3 -13 -13 -17 -13 -31 3 -12 13 -14 21 -7 26 6 3 11 12 11
18 0 7 -5 4 -11 -6 -6 -9 -14 -15 -19 -12 -5 3 -11 1 -15 -5 -3 -5 -12 -10
-18 -10 -8 0 -7 3 2 9 11 7 10 13 -8 32 -22 24 -42 20 -22 -5 9 -11 9 -16 -1
-22 -7 -4 -10 -4 -6 1 4 4 1 14 -7 22 -11 10 -19 11 -34 3 -28 -14 -51 -12
-51 5 0 15 10 19 44 15 11 -1 17 3 14 12 -3 8 -20 13 -41 13 -23 0 -37 4 -37
12 0 7 -7 13 -15 13 -8 0 -15 -5 -15 -11 0 -5 -5 -7 -12 -3 -9 6 -9 9 1 12 9
3 8 8 -4 22 -14 16 -14 18 0 23 24 10 18 26 -7 20 -19 -4 -20 -3 -8 7 12 9 8
10 -17 5 -28 -6 -31 -4 -26 14 3 11 12 22 22 24 9 3 17 5 18 6 1 0 -1 -7 -4
-16z m207 13 c0 -3 -4 -8 -10 -11 -5 -3 -10 -1 -10 4 0 6 5 11 10 11 6 0 10
-2 10 -4z m-39 -24 c-7 -2 -18 1 -23 6 -8 8 -4 9 13 5 13 -4 18 -8 10 -11z
m359 4 c0 -2 -7 -6 -15 -10 -8 -3 -15 -1 -15 4 0 6 7 10 15 10 8 0 15 -2 15
-4z m16 -12 c-5 -12 0 -14 25 -10 25 4 28 2 18 -10 -6 -7 -15 -12 -19 -9 -5 3
-11 1 -15 -5 -3 -5 -15 -10 -25 -10 -10 0 -23 -6 -27 -14 -11 -19 -50 -29 -59
-15 -4 7 -3 9 4 5 7 -4 8 2 3 22 -7 23 -5 31 12 41 17 11 21 10 29 -3 9 -16
49 -23 47 -8 -3 15 1 32 7 32 3 0 3 -7 0 -16z m-414 -19 c0 -5 -5 -11 -10 -13
-5 -1 -9 4 -9 13 0 9 4 14 9 13 5 -2 10 -8 10 -13z m208 -21 c0 -2 -7 -4 -15
-4 -8 0 -15 4 -15 10 0 5 7 7 15 4 8 -4 15 -8 15 -10z m477 -31 c-3 -3 -11 -2
-17 2 -9 6 -9 10 1 16 14 8 27 -7 16 -18z m-460 11 c-3 -3 -12 -4 -19 -1 -8 3
-5 6 6 6 11 1 17 -2 13 -5z m61 -6 c-4 -16 -19 -28 -37 -28 -8 0 -3 8 10 20
29 23 30 24 27 8z m-451 -4 c-3 -3 -12 -4 -19 -1 -8 3 -5 6 6 6 11 1 17 -2 13
-5z m2033 -154 c6 0 10 8 11 18 0 11 2 12 6 4 8 -21 -17 -44 -33 -31 -11 9
-14 8 -14 -5 0 -9 7 -16 16 -16 14 0 14 -3 4 -15 -7 -9 -10 -18 -6 -22 3 -3 6
-1 6 6 0 8 6 11 16 7 8 -3 13 -2 10 2 -2 4 -1 14 5 22 7 12 9 10 9 -8 0 -13
-10 -32 -22 -43 -17 -13 -19 -18 -8 -19 8 0 26 -9 39 -19 l23 -18 -48 3 c-27
2 -43 1 -36 -2 6 -3 12 -12 12 -20 0 -13 13 -19 33 -15 5 1 5 -3 2 -10 -4 -6
-18 -8 -30 -5 -29 8 -55 -2 -55 -20 0 -19 10 -18 25 3 12 16 13 15 12 -10 -2
-22 -6 -26 -22 -21 -15 4 -14 1 5 -10 18 -11 20 -15 8 -16 -9 0 -24 -3 -34 -7
-14 -5 -16 -3 -11 11 6 16 3 17 -20 11 -23 -5 -25 -4 -14 9 8 9 11 27 9 40 -4
19 -1 23 11 20 9 -3 6 0 -5 7 -21 11 -22 11 -3 30 10 10 19 28 19 38 0 20 25
35 42 25 6 -4 8 -1 6 7 -3 8 -11 13 -18 11 -10 -2 -11 0 -2 10 6 8 10 22 8 33
-4 26 16 48 27 29 4 -8 12 -14 17 -14z m-2710 -34 c0 -3 -4 -8 -10 -11 -5 -3
-10 -1 -10 4 0 6 5 11 10 11 6 0 10 -2 10 -4z m3 -65 c4 0 14 -1 23 -1 14 0
14 -3 4 -15 -11 -13 -8 -20 20 -45 19 -17 35 -30 37 -30 2 0 13 9 25 20 24 22
38 26 38 10 0 -5 5 -9 11 -7 6 1 13 -8 15 -21 2 -13 0 -21 -5 -17 -5 3 -13 0
-17 -6 -9 -16 18 -30 33 -17 9 7 13 7 13 -2 0 -10 3 -10 15 0 12 10 15 10 15
-4 0 -9 -6 -16 -12 -16 -10 0 -9 -3 1 -9 7 -5 10 -14 6 -21 -6 -9 -3 -9 14 -1
21 12 31 -2 11 -14 -6 -4 -8 -10 -5 -15 3 -5 -4 -11 -15 -15 -11 -4 -17 -11
-14 -17 4 -5 9 -6 13 -2 3 5 18 15 34 23 28 15 36 30 15 32 -18 1 32 17 57 18
17 0 18 -1 5 -12 -18 -14 -25 -67 -9 -67 7 0 9 11 7 25 -4 17 -1 25 9 25 10 0
12 -6 8 -19 -4 -13 0 -23 12 -29 15 -9 15 -12 3 -27 -10 -13 -15 -13 -21 -3
-7 10 -9 10 -9 1 0 -7 -4 -13 -10 -13 -5 0 -7 7 -4 15 4 8 1 15 -5 15 -6 0
-11 7 -11 16 0 13 -3 14 -14 5 -7 -6 -22 -8 -31 -4 -14 5 -17 3 -12 -10 6 -15
-2 -21 -23 -19 -3 0 -7 -8 -7 -19 -1 -10 3 -19 8 -19 6 0 6 -8 -1 -20 -6 -11
-16 -20 -23 -20 -7 0 -6 4 3 10 19 12 13 12 -29 0 -19 -5 -39 -6 -45 -3 -6 4
-1 9 13 13 23 5 23 6 5 20 -14 12 -16 12 -9 1 6 -11 4 -13 -9 -8 -10 4 -22 7
-27 7 -6 0 -7 9 -4 20 4 11 2 20 -4 20 -6 0 -10 5 -8 12 1 6 -7 16 -18 22 -55
30 -69 45 -55 61 14 17 0 21 -17 4 -7 -7 -10 -3 -10 15 0 17 5 26 15 26 13 0
13 3 4 12 -9 9 -15 9 -23 1 -9 -9 -15 -8 -24 0 -10 9 -7 19 13 45 14 18 21 32
16 31 -5 -1 -20 0 -34 1 -21 2 -19 4 15 15 36 11 38 13 17 19 -13 5 -29 3 -37
-4 -11 -9 -12 -7 -8 9 4 16 10 18 27 12 11 -5 24 -9 29 -10z m87 -61 c0 -5 -4
-10 -10 -10 -5 0 -10 5 -10 10 0 6 5 10 10 10 6 0 10 -4 10 -10z m1069 -40
c10 0 21 -6 24 -14 7 -17 -16 -39 -29 -28 -4 4 -2 -1 5 -10 12 -16 11 -18 -13
-16 -14 1 -26 6 -26 10 0 5 -25 6 -55 4 -49 -4 -55 -2 -55 15 0 13 -4 18 -12
13 -7 -4 -8 -3 -4 4 4 7 16 12 28 12 17 0 18 -2 8 -15 -9 -10 -9 -15 -1 -15 6
0 11 2 11 4 0 2 3 11 6 19 3 10 -2 17 -13 20 -15 4 -14 5 4 6 12 0 24 5 28 10
3 6 19 4 40 -5 19 -8 43 -14 54 -14z m130 -14 c9 -11 7 -15 -9 -19 -15 -4 -20
0 -20 14 0 22 13 25 29 5z m1381 -80 c-7 -7 -14 -6 -21 1 -9 9 -7 12 9 10 14
-1 18 -5 12 -11z m-2360 -87 c0 -6 -6 -9 -12 -6 -7 2 -20 -4 -29 -15 -15 -16
-18 -16 -29 -3 -10 12 -9 15 8 15 11 0 25 7 32 15 13 15 30 12 30 -6z m70 -39
c0 -5 -4 -10 -10 -10 -5 0 -10 5 -10 10 0 6 5 10 10 10 6 0 10 -4 10 -10z
m-80 -8 c0 -5 -7 -9 -15 -9 -8 0 -15 4 -15 9 0 4 7 8 15 8 8 0 15 -4 15 -8z
m-70 -42 c0 -5 -4 -10 -10 -10 -5 0 -10 5 -10 10 0 6 5 10 10 10 6 0 10 -4 10
-10z m233 -31 c5 -17 3 -18 -11 -7 -13 11 -15 11 -9 -4 3 -10 2 -18 -2 -18
-18 0 -20 30 -3 39 9 6 18 11 18 11 1 0 4 -9 7 -21z m-226 -5 c-3 -3 -12 -4
-19 -1 -8 3 -5 6 6 6 11 1 17 -2 13 -5z m214 -49 c-1 -6 -10 -10 -20 -10 -11
0 -23 -3 -27 -7 -10 -10 -24 -10 -24 0 0 9 50 31 63 28 5 -1 8 -6 8 -11z
m-216 -15 c3 -5 1 -10 -4 -10 -6 0 -11 5 -11 10 0 6 2 10 4 10 3 0 8 -4 11
-10z m341 -24 c20 -21 17 -28 -6 -14 -11 7 -20 16 -20 20 0 12 10 9 26 -6z
m-171 -16 c3 -5 -1 -10 -10 -10 -9 0 -13 5 -10 10 3 6 8 10 10 10 2 0 7 -4 10
-10z m104 -16 c-25 -13 -51 -7 -28 7 7 4 17 5 21 3 4 -3 8 0 8 6 0 6 5 8 11 4
8 -4 3 -11 -12 -20z m11 -29 c-11 -13 -10 -15 6 -12 11 2 28 8 38 12 13 6 21
4 24 -3 2 -7 11 -12 20 -12 14 0 15 -2 2 -10 -11 -7 -9 -11 13 -19 16 -6 25
-15 22 -21 -3 -5 0 -10 7 -10 8 0 14 9 14 20 0 12 -6 19 -14 17 -8 -1 -18 8
-23 20 -6 17 -5 21 7 16 7 -3 14 -9 14 -14 0 -5 7 -9 15 -9 8 0 17 -14 21 -35
4 -25 12 -35 25 -35 21 0 38 -22 21 -28 -7 -2 -12 -11 -11 -20 0 -11 2 -12 6
-4 2 6 9 10 14 6 5 -3 8 0 7 8 -2 8 6 12 22 11 24 -3 25 -2 5 13 -16 12 -17
16 -6 23 8 5 20 7 26 5 16 -7 6 -54 -11 -54 -8 0 -14 -5 -14 -11 0 -7 9 -5 24
4 23 15 24 15 30 -8 6 -24 36 -36 36 -15 0 6 -7 10 -15 10 -8 0 -15 7 -15 15
0 8 5 15 11 15 5 0 8 -4 5 -8 -2 -4 10 -14 27 -22 21 -9 26 -15 17 -18 -8 -3
-20 -11 -27 -18 -10 -10 -7 -14 17 -23 35 -12 41 -5 8 9 -21 8 -20 9 10 9 22
1 31 5 26 13 -4 7 -3 8 5 4 6 -4 9 -11 6 -16 -3 -5 -1 -11 5 -15 6 -4 7 -11 4
-17 -4 -6 2 -8 17 -4 20 6 21 5 7 -4 -9 -6 -15 -17 -12 -25 8 -20 14 -19 48
10 31 27 46 31 46 14 0 -6 9 -9 20 -6 15 4 20 0 20 -13 0 -10 7 -25 15 -33 8
-8 11 -18 7 -22 -13 -15 23 8 46 28 20 18 22 19 22 3 0 -9 4 -15 9 -12 5 3 12
-5 15 -19 l7 -25 23 24 c17 19 25 23 34 14 7 -7 12 -8 12 -4 0 5 7 3 15 -4 12
-10 18 -10 30 0 12 10 15 10 15 0 0 -7 8 -10 20 -7 22 6 28 -11 7 -19 -15 -5
-19 -34 -5 -34 4 0 8 7 8 15 0 8 5 15 11 15 7 0 9 10 7 25 -4 20 -3 23 8 14
10 -8 14 -8 14 0 0 6 7 11 16 11 11 0 14 -6 9 -22 -6 -17 -4 -20 10 -14 10 3
25 1 34 -6 9 -7 5 0 -9 16 -23 27 -24 28 -3 17 37 -19 38 -12 2 20 -28 26 -30
30 -11 24 16 -5 22 -2 22 9 0 9 9 16 21 16 11 0 18 4 14 9 -3 5 0 13 6 17 7 4
9 3 5 -4 -10 -17 51 -43 67 -29 16 15 40 21 32 7 -8 -13 44 -13 65 -1 22 15
34 1 13 -16 -17 -13 -17 -14 3 -4 11 5 26 6 34 1 7 -4 20 -5 29 -2 14 5 14 3
2 -11 -11 -14 -11 -17 0 -17 11 0 11 -2 -1 -10 -14 -9 -7 -14 13 -11 11 2 -10
-36 -25 -45 -7 -5 -8 -3 -3 7 7 12 6 12 -9 0 -16 -14 -16 -15 8 -28 14 -8 26
-18 26 -23 0 -12 -7 -12 -47 -1 -35 10 -47 3 -37 -23 6 -15 8 -15 20 1 11 15
15 16 26 4 9 -10 9 -12 1 -7 -9 5 -13 0 -13 -12 0 -17 -6 -20 -42 -17 -49 3
-71 -5 -42 -16 18 -6 17 -8 -6 -17 l-25 -9 25 -8 c15 -5 25 -4 28 4 2 6 11 11
20 10 12 0 13 -2 4 -6 -10 -4 -9 -9 5 -19 10 -8 14 -14 8 -13 -35 5 -67 -4
-84 -22 -14 -16 -28 -20 -50 -17 -18 3 -31 0 -31 -6 0 -6 -7 -2 -15 8 -8 11
-15 14 -15 7 0 -7 -4 -9 -10 -6 -5 3 -10 2 -10 -4 0 -5 8 -12 18 -14 13 -4 11
-5 -5 -6 -14 -1 -23 -7 -23 -17 0 -14 3 -14 16 -3 10 9 18 9 22 2 10 -15 72
-27 72 -14 0 6 -10 11 -22 11 -21 0 -21 0 -3 14 17 12 21 12 31 -2 28 -42 26
-57 -15 -80 -44 -25 -56 -27 -45 -10 5 8 2 9 -10 5 -13 -5 -17 -3 -13 5 5 14
-11 31 -33 36 -12 3 -12 1 -3 -9 9 -9 7 -16 -8 -32 -23 -25 -17 -31 34 -36 4
-1 7 -5 7 -11 0 -6 -10 -6 -27 1 -18 7 -30 6 -37 -1 -7 -7 -3 -10 11 -10 33 0
39 -20 6 -21 -66 -1 -108 -20 -97 -43 3 -6 -1 -3 -9 7 -13 15 -17 16 -41 3
-28 -14 -70 -11 -60 5 3 5 -5 9 -18 9 -19 0 -20 -2 -8 -11 12 -8 11 -9 -5 -6
-11 2 -19 9 -17 16 1 7 -2 10 -7 7 -5 -4 -12 -2 -15 3 -4 5 2 11 11 14 10 2 3
4 -15 4 -19 0 -37 -7 -42 -16 -6 -10 -10 -11 -10 -3 0 6 9 21 20 32 11 11 20
16 20 10 0 -12 10 -13 29 -1 11 7 8 15 -14 37 -15 16 -24 23 -21 17 4 -7 2
-13 -3 -13 -6 0 -11 7 -11 15 0 19 -7 19 -27 -1 -12 -12 -18 -12 -23 -3 -5 6
-13 8 -20 4 -9 -6 -11 -4 -5 5 6 10 4 12 -8 7 -9 -3 -19 -2 -22 3 -3 5 -13 6
-21 3 -10 -4 -17 2 -21 15 -3 11 -11 18 -18 16 -7 -3 -15 2 -19 11 -3 10 -12
15 -19 12 -6 -2 -23 0 -36 4 l-23 9 23 20 c13 11 21 19 17 20 -20 1 -24 2 -40
17 -16 15 -18 15 -18 0 0 -8 6 -17 13 -20 6 -2 9 -8 5 -12 -10 -11 -39 15 -31
28 4 6 0 8 -9 4 -16 -6 -38 10 -38 27 0 6 5 3 11 -6 11 -20 40 -13 32 8 -3 8
0 14 6 14 6 0 11 -5 11 -11 0 -6 5 -7 13 -2 6 4 23 7 37 5 l25 -1 -25 12 c-27
13 -38 37 -18 37 7 1 -2 7 -21 15 -41 18 -38 18 -45 0 -3 -8 -2 -14 2 -14 39
6 58 -15 22 -24 -11 -3 -18 -2 -15 3 3 4 -2 11 -11 14 -10 4 -14 14 -11 25 4
15 1 18 -12 14 -9 -3 -22 -10 -28 -16 -10 -7 -12 -2 -6 23 4 24 3 31 -6 26 -6
-4 -9 -12 -6 -17 4 -5 -1 -9 -9 -9 -9 0 -16 -5 -16 -11 0 -5 4 -8 9 -5 5 4 7
-3 4 -15 -5 -16 -1 -20 13 -19 32 4 41 1 41 -15 0 -16 -9 -19 -21 -7 -12 12
-31 8 -37 -7 -8 -20 -37 -22 -35 -3 0 9 -9 21 -21 27 -13 7 -20 15 -16 19 4 4
-7 5 -25 1 -18 -3 -32 -2 -31 2 1 5 1 19 0 33 -1 21 -3 22 -12 10 -9 -12 -10
-11 -6 7 3 13 -1 24 -9 27 -20 8 -33 48 -23 68 7 13 4 17 -14 20 -14 2 -21 9
-21 21 1 9 -3 17 -8 17 -6 0 -8 7 -4 15 3 8 0 15 -6 15 -7 0 -6 5 2 15 7 8 17
12 23 8 6 -3 7 -1 3 5 -10 16 -39 15 -30 0 5 -10 4 -10 -6 -1 -11 10 -11 15 0
28 12 14 11 18 -1 26 -13 8 -12 10 10 13 5 0 13 5 18 10 4 5 -1 7 -13 4 -11
-3 -29 1 -39 8 -18 14 -18 14 1 15 17 0 16 1 -3 9 -24 10 -31 30 -11 30 6 0 8
3 5 7 -8 8 23 32 42 33 11 0 11 -3 1 -15z m260 -55 c0 -5 -4 -10 -10 -10 -5 0
-10 5 -10 10 0 6 5 10 10 10 6 0 10 -4 10 -10z m-47 -27 c-7 -2 -19 -2 -25 0
-7 3 -2 5 12 5 14 0 19 -2 13 -5z m-818 -70 c-2 -32 -7 -101 -12 -153 -15
-179 -9 -268 28 -417 18 -76 37 -141 42 -144 5 -3 7 -15 5 -25 -2 -11 2 -18 9
-17 7 2 10 -4 7 -12 -4 -8 -1 -15 5 -15 7 0 9 -9 5 -25 -5 -21 -3 -24 11 -19
12 5 13 9 5 14 -9 6 -6 14 9 29 19 19 16 25 -10 23 -3 -1 -6 5 -6 12 0 8 8 11
18 9 14 -4 17 1 14 31 -3 27 0 36 11 36 9 0 13 -4 10 -8 -2 -4 -1 -14 5 -22 6
-11 8 -5 5 17 -3 26 0 33 18 35 15 2 21 10 20 26 0 16 4 21 13 18 8 -4 11 -1
7 5 -3 6 -17 9 -30 6 -13 -2 -21 0 -18 4 3 5 17 9 32 10 24 0 25 1 7 9 -11 5
-17 9 -12 9 4 1 10 1 15 2 4 0 12 5 19 10 7 7 14 6 18 -1 3 -5 17 -7 31 -4 18
5 24 2 24 -9 0 -12 -8 -15 -32 -12 -29 4 -30 3 -12 -10 10 -7 20 -10 22 -5 2
4 12 5 24 2 14 -3 19 -1 14 6 -3 6 6 13 24 17 17 4 28 11 25 15 -3 5 -11 8
-18 6 -7 -1 -9 -1 -4 1 4 3 4 9 1 15 -4 5 5 3 19 -7 32 -20 41 -43 20 -47 -15
-3 -15 -5 1 -21 10 -9 22 -14 27 -11 15 9 49 -26 42 -44 -5 -11 -3 -13 8 -6
20 12 40 14 33 3 -3 -5 -10 -7 -15 -4 -5 4 -9 2 -9 -4 0 -5 10 -11 23 -13 13
-2 22 -9 21 -20 -1 -9 5 -19 12 -22 8 -3 14 0 15 7 0 7 4 1 10 -11 5 -13 7
-27 5 -31 -3 -4 4 -13 15 -19 19 -12 19 -11 9 8 -12 22 -10 23 14 14 9 -3 13
-10 10 -15 -3 -5 8 -12 25 -15 29 -6 44 -24 21 -24 -7 0 -7 -6 -1 -19 6 -10 7
-21 4 -25 -3 -3 1 -6 11 -6 10 0 24 -7 32 -15 14 -13 13 -15 -3 -16 -10 -1 -2
-4 17 -8 21 -4 39 -14 45 -28 8 -16 15 -19 26 -12 8 5 19 9 24 9 6 0 4 -4 -3
-9 -10 -6 -4 -10 20 -16 18 -4 36 -7 39 -7 4 1 5 -12 4 -28 -2 -27 0 -29 26
-26 20 2 29 -1 29 -11 0 -8 -5 -11 -11 -7 -7 4 -4 -7 7 -25 16 -27 26 -33 50
-30 4 0 10 -5 14 -11 4 -6 26 -14 49 -17 61 -8 61 -23 -1 -18 l-53 5 40 -14
c33 -10 36 -14 20 -19 -14 -4 -11 -5 8 -3 15 2 27 -1 27 -6 0 -5 5 -6 12 -2 8
5 9 2 5 -10 -6 -15 -4 -17 10 -11 38 16 62 17 83 2 19 -13 20 -15 3 -21 -10
-4 -19 -2 -21 3 -6 19 -21 12 -19 -10 1 -14 7 -19 19 -16 10 3 16 1 12 -4 -3
-5 1 -9 10 -9 8 0 16 4 18 10 2 5 9 -3 16 -17 9 -20 9 -24 0 -15 -7 7 -21 11
-32 11 -17 -1 -18 -2 -3 -6 9 -2 17 -10 17 -17 0 -8 10 -12 25 -11 31 4 32 -3
3 -16 -20 -8 -19 -9 7 -3 28 5 29 5 12 -14 -9 -10 -17 -23 -17 -28 0 -5 -9
-10 -20 -11 -11 -1 -20 2 -20 8 0 5 -4 9 -10 9 -22 0 -8 -17 32 -40 40 -23 41
-23 36 -2 -4 14 -2 19 7 16 7 -3 15 -15 18 -26 4 -13 10 -17 18 -12 9 5 10 2
6 -9 -4 -11 -1 -17 9 -17 12 0 13 -4 3 -22 -9 -18 -9 -21 1 -11 18 17 42 4 35
-18 -5 -15 -1 -19 17 -19 18 0 20 2 8 10 -12 7 -12 12 -2 22 9 9 12 8 13 -7 1
-11 1 -26 0 -32 -1 -7 7 -13 19 -13 11 0 20 -4 20 -10 0 -5 10 -10 23 -11 21
0 21 -1 -3 -10 -17 -7 -26 -7 -28 1 -3 8 -8 7 -18 -1 -12 -10 -13 -9 -8 6 5
12 4 16 -4 12 -6 -4 -12 -2 -15 5 -2 7 -2 3 0 -9 3 -18 0 -21 -14 -16 -16 6
-16 4 -5 -9 11 -14 11 -16 -6 -11 -13 3 -24 -4 -36 -21 -9 -14 -23 -26 -31
-26 -8 0 -15 -4 -15 -10 0 -13 17 -13 25 0 4 7 13 7 26 0 13 -7 19 -7 19 0 0
5 -8 10 -17 11 -11 0 -13 3 -5 6 6 2 12 11 12 19 0 8 5 14 10 14 6 0 10 -4 10
-10 0 -5 8 -7 18 -3 14 5 15 3 5 -8 -19 -19 -16 -33 3 -15 11 12 20 13 33 6
10 -5 20 -7 23 -5 3 3 5 -2 5 -10 0 -8 -4 -12 -9 -9 -4 3 -8 0 -8 -5 0 -6 5
-11 11 -11 5 0 7 -4 4 -10 -3 -5 0 -10 7 -10 10 0 9 -3 -2 -9 -8 -6 -18 -7
-22 -5 -7 5 -10 -3 -7 -22 1 -7 -54 -54 -63 -54 -5 0 -8 7 -8 15 0 8 -4 15 -9
15 -6 0 -9 -9 -8 -20 1 -12 8 -20 18 -20 17 0 20 -23 4 -37 -4 -4 -5 -3 -1 4
3 6 1 15 -5 19 -8 4 -9 3 -5 -4 4 -7 2 -12 -5 -12 -10 0 -10 -3 -1 -12 9 -9
16 -7 31 6 19 18 67 14 56 -4 -3 -5 4 -11 15 -15 12 -4 17 -11 13 -18 -4 -7 2
-5 12 3 10 8 16 10 12 4 -4 -6 2 -19 13 -29 11 -10 20 -23 20 -29 0 -8 -2 -8
-8 0 -6 10 -45 34 -55 34 -2 0 -14 -9 -27 -20 -13 -12 -18 -20 -10 -20 19 0 3
-13 -20 -17 -11 -2 -20 2 -20 7 0 6 6 10 13 11 6 0 2 5 -11 12 -18 8 -25 8
-32 -2 -4 -8 -13 -10 -19 -7 -6 4 -11 4 -11 1 0 -3 18 -14 41 -24 45 -21 79
-17 79 8 0 14 2 14 10 1 9 -13 10 -13 10 0 0 13 2 13 9 0 6 -8 7 -19 4 -25 -4
-5 -3 -7 2 -3 4 4 16 3 26 -2 11 -7 27 -7 43 0 37 14 32 3 -6 -14 -32 -14 -32
-14 -8 -15 15 -1 31 4 37 10 8 8 11 4 10 -16 -2 -22 -6 -26 -24 -22 -12 2 -20
0 -17 -4 3 -5 0 -9 -5 -9 -6 0 -11 6 -11 13 0 8 -3 7 -10 -3 -7 -11 -12 -12
-21 -3 -6 6 -17 9 -24 7 -7 -3 -16 0 -20 6 -5 8 -11 7 -23 -2 -12 -10 -14 -10
-8 0 4 7 2 12 -8 12 -8 0 -16 6 -19 13 -4 10 -7 10 -18 0 -11 -11 -11 -13 1
-13 7 0 11 -2 9 -5 -3 -2 -19 -1 -37 4 -24 7 -35 6 -51 -8 -21 -18 -19 -33 2
-26 32 11 67 12 73 3 4 -6 2 -8 -4 -4 -6 3 -13 2 -17 -4 -3 -5 3 -10 14 -10
10 0 22 6 24 13 4 9 8 9 15 -2 5 -7 15 -10 21 -7 6 4 11 3 11 -3 0 -10 19 -9
38 3 7 4 12 4 11 -1 -4 -20 2 -27 12 -13 9 12 10 11 6 -7 -4 -18 -1 -23 14
-23 10 0 19 -4 19 -9 0 -5 -11 -8 -24 -7 -13 0 -23 3 -21 6 2 3 -1 12 -6 20
-8 12 -12 12 -16 3 -2 -7 -14 -13 -24 -13 -11 0 -17 5 -14 10 4 6 -5 10 -20
10 -15 0 -24 -4 -20 -10 3 -5 -3 -10 -14 -10 -11 0 -23 5 -26 10 -7 11 -61 7
-72 -4 -3 -3 2 -8 11 -12 9 -3 13 -11 9 -17 -3 -6 -1 -7 5 -3 7 4 12 1 12 -8
0 -8 -6 -17 -12 -19 -10 -4 -10 -6 -1 -6 17 -1 37 36 22 41 -7 2 -4 10 7 18
11 9 15 10 10 3 -5 -9 0 -13 13 -13 12 0 21 -7 21 -15 0 -9 7 -18 15 -21 8 -4
12 -10 9 -15 -3 -5 0 -9 6 -9 6 0 13 7 16 15 4 8 11 12 18 8 17 -11 36 -12 36
-3 0 5 -6 11 -12 13 -9 4 -10 6 -1 6 6 1 19 -6 27 -15 9 -8 20 -13 26 -9 5 3
7 0 4 -8 -3 -9 -20 -15 -45 -15 -21 -1 -44 -4 -51 -8 -18 -11 -48 -12 -54 -2
-3 4 -10 8 -15 8 -6 0 -7 -4 -4 -10 4 -7 -2 -7 -18 -1 -30 12 -86 11 -93 0 -3
-5 3 -6 13 -2 15 5 16 3 6 -8 -11 -10 -15 -11 -25 0 -11 10 -9 15 6 27 11 8
16 14 10 14 -5 0 -18 -7 -28 -15 -16 -12 -22 -12 -28 -2 -6 9 -8 8 -8 -3 0
-12 -8 -15 -35 -12 -31 4 -33 6 -19 20 15 14 14 17 -7 33 -27 20 -38 17 -19
-6 11 -13 8 -15 -16 -15 -22 0 -26 3 -14 10 13 9 13 10 0 11 -8 1 -19 1 -23 0
-4 -1 -10 7 -14 16 -3 10 -15 26 -27 35 -12 10 -15 18 -8 18 6 0 12 4 12 9 0
4 -13 7 -30 5 -22 -3 -30 1 -30 12 0 8 -4 12 -10 9 -5 -3 -10 1 -10 9 0 10 -6
13 -16 9 -12 -4 -15 0 -12 17 2 13 -3 25 -11 28 -8 3 -11 0 -7 -6 4 -6 -2 -8
-13 -5 -11 3 -22 12 -25 20 -3 8 -10 11 -16 8 -6 -3 -7 1 -4 9 4 11 0 16 -10
16 -9 0 -19 7 -22 15 -4 8 -12 15 -20 15 -8 0 -14 7 -14 15 0 8 -5 15 -11 15
-6 0 -49 39 -96 88 -47 48 -81 78 -75 67 6 -11 19 -29 29 -40 10 -11 27 -33
37 -49 54 -85 425 -480 521 -556 22 -17 121 -109 219 -203 99 -95 216 -206
260 -248 45 -42 119 -112 166 -156 l84 -81 49 34 c36 25 60 34 91 34 32 0 51
8 86 36 93 74 183 169 234 248 29 45 86 120 127 166 41 47 83 99 95 115 11 17
38 55 59 85 37 52 215 317 236 350 75 120 297 461 316 485 4 6 20 35 36 65 15
30 38 73 51 95 12 22 42 78 66 125 24 47 55 103 69 125 13 22 23 42 20 44 -2
2 6 10 18 18 14 10 23 11 28 4 3 -6 1 -11 -5 -11 -7 0 -5 -7 4 -16 9 -8 14
-19 11 -24 -2 -4 -7 -47 -11 -96 -6 -99 -9 -120 -19 -181 -5 -30 -4 -48 5 -58
11 -13 10 -14 -3 -9 -12 4 -14 1 -10 -15 3 -12 0 -28 -7 -36 -10 -12 -10 -18
0 -30 9 -11 9 -15 1 -15 -7 0 -9 -4 -6 -10 3 -5 1 -10 -4 -10 -6 0 -11 -7 -11
-15 0 -8 5 -15 11 -15 5 0 8 -4 5 -9 -6 -9 43 -36 58 -32 5 1 6 -7 3 -19 -4
-15 0 -20 13 -20 13 0 20 -11 25 -37 11 -53 13 -73 6 -73 -3 0 -5 -156 -3
-347 1 -192 3 -352 2 -358 -5 -134 -10 -208 -15 -225 -4 -12 -2 -20 6 -20 8 0
9 -3 0 -13 -6 -8 -13 -40 -16 -73 -3 -32 -8 -79 -11 -104 -3 -25 -6 -53 -7
-62 -1 -9 -4 -15 -8 -12 -13 8 -20 -35 -10 -55 7 -13 8 -22 1 -26 -15 -9 -12
-27 3 -20 6 4 1 -3 -13 -14 -15 -13 -20 -21 -11 -21 11 0 11 -4 -2 -18 -22
-24 -21 -38 1 -51 14 -9 11 -11 -18 -11 -29 -1 -31 -3 -15 -10 17 -7 17 -9 3
-9 -21 -1 -24 -17 -5 -24 7 -3 5 -6 -5 -6 -10 -1 -18 -6 -18 -12 0 -5 4 -7 10
-4 6 3 7 -1 4 -9 -3 -9 -10 -16 -14 -16 -5 0 -8 -8 -8 -17 3 -37 -23 -93 -42
-93 -10 0 -22 -5 -26 -12 -5 -8 0 -9 14 -6 16 4 22 2 22 -9 0 -12 -7 -14 -30
-10 -27 6 -29 4 -28 -21 0 -15 -2 -45 -5 -66 -7 -41 0 -66 13 -46 5 8 9 7 13
-4 5 -11 1 -16 -13 -16 -11 0 -20 4 -20 10 0 5 -9 14 -20 20 -25 13 -26 7 -2
-16 16 -17 16 -17 -5 -12 -13 3 -23 2 -23 -3 0 -5 14 -10 30 -10 60 -3 72 -12
40 -29 -14 -8 -25 -8 -29 -2 -3 5 -22 13 -41 16 -66 14 -74 17 -59 27 10 6 2
9 -23 9 -26 0 -38 5 -38 14 0 7 -10 21 -22 30 -13 9 -17 14 -9 10 9 -4 12 -3
8 4 -4 5 -17 8 -30 5 -16 -3 -18 -2 -9 5 11 7 11 10 -1 15 -9 3 -21 0 -27 -8
-9 -10 -6 -15 10 -20 11 -3 18 -11 15 -16 -4 -5 1 -9 11 -9 12 0 15 -6 11 -21
-3 -12 0 -22 8 -25 7 -3 16 -16 19 -30 4 -13 13 -24 21 -24 8 0 12 -6 9 -14
-3 -8 3 -19 16 -26 11 -6 18 -16 14 -21 -3 -6 3 -18 14 -27 10 -9 17 -22 15
-29 -2 -6 5 -17 16 -23 12 -6 21 -18 21 -26 0 -9 17 -34 38 -55 20 -22 38 -44
38 -49 1 -6 2 -17 3 -26 0 -9 6 -12 13 -8 7 5 9 2 5 -9 -3 -9 -1 -17 6 -20 6
-2 12 -21 13 -43 0 -21 3 -45 5 -53 2 -7 -1 -15 -8 -18 -16 -6 -53 33 -53 56
0 11 -41 71 -91 133 -50 62 -94 120 -97 128 -3 8 -11 20 -16 26 -25 27 -46 55
-46 61 0 12 -115 149 -170 202 -30 29 -81 73 -113 97 -116 87 -349 208 -494
257 l-62 21 -145 -72 c-229 -113 -276 -128 -276 -87 0 9 14 30 30 47 17 17 30
32 28 33 -2 1 -17 6 -34 9 -29 6 -35 2 -82 -51 -63 -72 -504 -518 -632 -638
-99 -93 -237 -217 -276 -248 -47 -37 -74 -13 -90 78 -4 22 -9 45 -13 50 -3 6
-6 15 -6 20 -2 17 -17 88 -32 145 -7 30 -18 73 -22 95 -5 22 -34 139 -66 260
-31 121 -59 229 -61 240 -2 11 -13 52 -24 90 -12 39 -23 77 -25 85 -2 8 -15
56 -30 105 -15 50 -37 133 -50 185 -13 52 -29 111 -35 130 -6 19 -13 42 -15
50 -37 153 -78 309 -84 325 -5 11 -13 34 -19 50 -5 17 -24 68 -42 115 -18 47
-36 94 -40 105 -4 11 -27 74 -50 140 -24 66 -58 153 -76 193 -92 200 -177 472
-221 700 -9 48 -18 155 -20 237 -5 167 9 255 67 422 45 129 142 323 162 323 4
0 6 -26 3 -57z m585 23 c0 -3 -4 -8 -10 -11 -5 -3 -10 -1 -10 4 0 6 5 11 10
11 6 0 10 -2 10 -4z m1270 -30 c0 -2 -7 -7 -16 -10 -8 -3 -12 -2 -9 4 6 10 25
14 25 6z m70 -23 c0 -5 -11 -8 -24 -8 -13 0 -22 3 -19 8 2 4 13 7 24 7 10 0
19 -3 19 -7z m-270 -13 c0 -5 -4 -10 -9 -10 -6 0 -13 5 -16 10 -3 6 1 10 9 10
9 0 16 -4 16 -10z m200 -11 c0 -6 -4 -7 -10 -4 -5 3 -10 11 -10 16 0 6 5 7 10
4 6 -3 10 -11 10 -16z m100 11 c0 -5 -2 -10 -4 -10 -3 0 -8 5 -11 10 -3 6 -1
10 4 10 6 0 11 -4 11 -10z m-284 -27 c-10 -10 -19 5 -10 18 6 11 8 11 12 0 2
-7 1 -15 -2 -18z m84 12 c0 -8 -2 -15 -4 -15 -2 0 -6 7 -10 15 -3 8 -1 15 4
15 6 0 10 -7 10 -15z m187 -8 c2 -3 -5 -7 -16 -10 -11 -3 -22 1 -25 8 -3 9 2
12 16 10 11 -3 23 -6 25 -8z m163 -17 c0 -5 -13 -8 -30 -8 -16 1 -27 5 -24 10
3 5 15 6 26 2 15 -4 18 -3 13 6 -5 9 -4 11 3 6 7 -4 12 -11 12 -16z m-795 -41
c12 -19 -5 -23 -22 -6 -16 16 -16 17 -1 17 9 0 20 -5 23 -11z m699 -15 c21 -8
21 -24 0 -24 -8 0 -13 4 -10 9 4 5 0 12 -6 14 -7 3 -10 6 -6 6 3 1 13 -2 22
-5z m-102 -46 c-7 -7 -12 -8 -12 -2 0 14 12 26 19 19 2 -3 -1 -11 -7 -17z m3
-48 c3 -5 1 -10 -4 -10 -6 0 -11 5 -11 10 0 6 2 10 4 10 3 0 8 -4 11 -10z
m-1135 -80 c0 -5 -6 -10 -14 -10 -8 0 -18 5 -21 10 -3 6 3 10 14 10 12 0 21
-4 21 -10z m20 -40 c23 -23 21 -24 -14 -10 -14 5 -26 14 -26 20 0 16 18 12 40
-10z m59 13 c0 -5 -4 -17 -9 -28 -8 -18 -9 -17 -9 8 -1 15 4 27 9 27 6 0 10
-3 9 -7z m862 -70 c-12 -20 -14 -14 -5 12 4 9 9 14 11 11 3 -2 0 -13 -6 -23z
m-871 7 c0 -5 -4 -10 -10 -10 -5 0 -10 5 -10 10 0 6 5 10 10 10 6 0 10 -4 10
-10z m200 -82 c0 -6 -6 -5 -15 2 -8 7 -15 14 -15 16 0 2 7 1 15 -2 8 -4 15
-11 15 -16z m-713 -14 c-3 -3 -12 -4 -19 -1 -8 3 -5 6 6 6 11 1 17 -2 13 -5z
m-137 -14 c0 -5 -5 -10 -11 -10 -5 0 -7 5 -4 10 3 6 8 10 11 10 2 0 4 -4 4
-10z m87 -10 c2 -17 -1 -19 -20 -9 -16 9 -22 9 -25 0 -5 -16 -19 -14 -26 5 -4
11 -2 15 6 11 7 -2 22 -1 33 4 29 11 31 11 32 -11z m1397 -15 c-4 -8 -11 -12
-16 -9 -6 4 -5 10 3 15 19 12 19 11 13 -6z m-44 -13 c0 -5 -7 -9 -15 -9 -8 0
-15 4 -15 9 0 4 7 8 15 8 8 0 15 -4 15 -8z m-435 -22 c3 -6 -4 -10 -17 -10
-18 0 -20 2 -8 10 19 12 18 12 25 0z m-1025 -52 c0 -13 -23 -5 -28 10 -2 7 2
10 12 6 9 -3 16 -11 16 -16z m300 12 c0 -5 -2 -10 -4 -10 -3 0 -8 5 -11 10 -3
6 -1 10 4 10 6 0 11 -4 11 -10z m730 -4 c0 -3 -4 -8 -10 -11 -5 -3 -10 -1 -10
4 0 6 5 11 10 11 6 0 10 -2 10 -4z m300 0 c0 -2 -7 -7 -16 -10 -8 -3 -12 -2
-9 4 6 10 25 14 25 6z m35 -6 c-3 -5 -12 -10 -18 -10 -7 0 -6 4 3 10 19 12 23
12 15 0z m-832 -210 c4 -17 2 -18 -15 -9 -17 9 -18 13 -7 20 8 5 15 9 15 9 1
0 4 -9 7 -20z m47 -50 c0 -5 -8 -10 -17 -10 -15 0 -16 2 -3 10 19 12 20 12 20
0z m210 -160 c12 -7 10 -9 -8 -7 -12 0 -22 5 -22 9 0 11 12 10 30 -2z m16 -33
c4 -4 0 -7 -9 -7 -9 0 -18 4 -21 9 -7 10 20 9 30 -2z m178 -85 c3 -5 -8 -9
-25 -9 -19 0 -25 3 -17 9 17 10 35 10 42 0z m191 -152 c-3 -5 -12 -10 -18 -10
-7 0 -6 4 3 10 19 12 23 12 15 0z m-74 -43 c-16 -16 -26 0 -10 19 9 11 15 12
17 4 2 -6 -1 -17 -7 -23z m63 7 c3 -8 2 -12 -4 -9 -6 3 -10 10 -10 16 0 14 7
11 14 -7z m12 -41 c-11 -11 -35 -12 -42 -2 -3 5 7 9 22 9 15 0 24 -3 20 -7z
m109 -133 c3 -5 1 -10 -4 -10 -6 0 -11 5 -11 10 0 6 2 10 4 10 3 0 8 -4 11
-10z m2010 -40 c3 -5 2 -10 -4 -10 -5 0 -13 5 -16 10 -3 6 -2 10 4 10 5 0 13
-4 16 -10z m-1995 -131 c0 -5 -4 -9 -10 -9 -5 0 -10 7 -10 16 0 8 5 12 10 9 6
-3 10 -10 10 -16z m-50 -79 c0 -4 -6 -10 -14 -13 -10 -4 -14 0 -13 12 1 18 27
18 27 1z m40 -21 c0 -5 -4 -9 -8 -9 -5 0 -9 7 -9 15 0 8 4 12 9 9 4 -3 8 -9 8
-15z m105 -39 c3 -5 1 -10 -4 -10 -6 0 -11 5 -11 10 0 6 2 10 4 10 3 0 8 -4
11 -10z m55 6 c0 -2 -7 -6 -15 -10 -8 -3 -15 -1 -15 4 0 6 7 10 15 10 8 0 15
-2 15 -4z m-125 -36 c3 -5 1 -10 -4 -10 -6 0 -11 5 -11 10 0 6 2 10 4 10 3 0
8 -4 11 -10z m75 -60 c0 -5 -5 -10 -11 -10 -5 0 -7 5 -4 10 3 6 8 10 11 10 2
0 4 -4 4 -10z m37 4 c-3 -3 -12 -4 -19 -1 -8 3 -5 6 6 6 11 1 17 -2 13 -5z
m-122 -14 c3 -5 2 -10 -4 -10 -5 0 -13 5 -16 10 -3 6 -2 10 4 10 5 0 13 -4 16
-10z m105 -50 c0 -5 -5 -10 -11 -10 -5 0 -7 5 -4 10 3 6 8 10 11 10 2 0 4 -4
4 -10z m-21 -51 c-16 -10 -23 -4 -14 10 3 6 11 8 17 5 6 -4 5 -9 -3 -15z m-29
3 c0 -13 -12 -22 -22 -16 -10 6 -1 24 13 24 5 0 9 -4 9 -8z m-3 -78 c-3 -3
-12 -4 -19 -1 -8 3 -5 6 6 6 11 1 17 -2 13 -5z m-2 -54 c3 -5 -1 -10 -10 -10
-9 0 -13 5 -10 10 3 6 8 10 10 10 2 0 7 -4 10 -10z m-204 -25 c5 4 9 1 9 -5 0
-6 5 -8 10 -5 6 3 10 4 10 1 0 -2 3 -13 6 -23 4 -11 3 -14 -3 -6 -12 17 -49
21 -45 5 1 -8 -3 -12 -10 -9 -7 2 -12 10 -10 16 1 6 0 11 -3 11 -5 0 -37 -25
-60 -47 -18 -17 -30 -17 -16 0 8 10 7 17 -1 25 -8 8 -7 13 5 18 9 3 17 12 17
19 0 10 9 11 41 4 22 -5 44 -7 50 -4z m-151 -5 c8 -5 11 -10 5 -11 -5 0 -20
-2 -32 -5 -13 -2 -23 1 -23 7 0 5 5 7 10 4 6 -3 10 -1 10 4 0 13 10 14 30 1z
m276 -16 c-3 -8 0 -14 6 -14 6 0 8 -3 5 -7 -7 -7 -47 25 -47 38 0 4 9 5 21 2
12 -3 18 -11 15 -19z m-92 -43 c3 -5 -1 -15 -10 -22 -8 -7 -14 -8 -12 -2 2 6
0 11 -4 12 -9 1 -10 -8 -2 -31 3 -10 10 -18 15 -18 5 0 9 -5 9 -11 0 -8 -4 -9
-13 0 -8 6 -18 7 -22 3 -5 -4 -5 -1 -1 6 4 6 2 12 -3 12 -6 0 -11 7 -11 15 0
8 -6 15 -14 15 -8 0 -18 5 -22 11 -5 8 1 10 19 5 14 -3 29 -2 32 4 8 12 32 13
39 1z m1956 -1187 c0 -2 -7 -4 -15 -4 -8 0 -15 4 -15 10 0 5 7 7 15 4 8 -4 15
-8 15 -10z m-15 -44 c3 -5 2 -10 -4 -10 -5 0 -13 5 -16 10 -3 6 -2 10 4 10 5
0 13 -4 16 -10z m-115 -110 c12 -7 12 -12 2 -22 -9 -9 -12 -8 -12 6 0 12 -5
16 -15 12 -8 -3 -15 -1 -15 4 0 13 20 13 40 0z m45 -20 c-4 -7 3 -9 19 -6 20
3 23 1 19 -12 -5 -11 -2 -14 10 -9 9 3 19 2 22 -3 4 -6 -3 -10 -14 -10 -23 0
-36 -16 -21 -25 6 -4 8 -11 5 -16 -11 -16 7 -10 22 9 8 9 6 2 -3 -15 -10 -18
-21 -33 -24 -33 -11 0 -28 51 -23 71 4 14 0 25 -11 31 -14 8 -14 28 0 28 3 0
2 -5 -1 -10z m65 -134 c0 -3 -4 -8 -10 -11 -5 -3 -10 -1 -10 4 0 6 5 11 10 11
6 0 10 -2 10 -4z"/>
<path d="M4455 8990 c3 -5 11 -10 16 -10 6 0 7 5 4 10 -3 6 -11 10 -16 10 -6
0 -7 -4 -4 -10z"/>
<path d="M4358 8973 c7 -3 16 -2 19 1 4 3 -2 6 -13 5 -11 0 -14 -3 -6 -6z"/>
<path d="M6305 8950 c4 -6 11 -8 16 -5 14 9 11 15 -7 15 -8 0 -12 -5 -9 -10z"/>
<path d="M6098 8943 c6 -2 18 -2 25 0 6 3 1 5 -13 5 -14 0 -19 -2 -12 -5z"/>
<path d="M6335 8920 c-3 -5 -1 -10 4 -10 6 0 11 5 11 10 0 6 -2 10 -4 10 -3 0
-8 -4 -11 -10z"/>
<path d="M4333 8865 c-10 -10 -9 -14 3 -19 17 -7 34 0 34 14 0 14 -25 18 -37
5z"/>
<path d="M6450 8870 c-12 -7 -12 -10 -1 -10 8 0 11 -6 7 -16 -3 -8 -2 -13 3
-10 11 7 22 46 13 46 -4 0 -14 -5 -22 -10z"/>
<path d="M4315 8830 c-3 -5 -1 -10 4 -10 6 0 11 5 11 10 0 6 -2 10 -4 10 -3 0
-8 -4 -11 -10z"/>
<path d="M6500 8830 c0 -6 7 -10 15 -10 8 0 15 2 15 4 0 2 -7 6 -15 10 -8 3
-15 1 -15 -4z"/>
<path d="M6445 8760 c-3 -6 1 -7 9 -4 18 7 21 14 7 14 -6 0 -13 -4 -16 -10z"/>
<path d="M4288 8723 c7 -3 16 -2 19 1 4 3 -2 6 -13 5 -11 0 -14 -3 -6 -6z"/>
<path d="M6467 8709 c7 -7 15 -10 18 -7 3 3 -2 9 -12 12 -14 6 -15 5 -6 -5z"/>
<path d="M6575 8710 c-3 -5 -1 -10 4 -10 6 0 11 5 11 10 0 6 -2 10 -4 10 -3 0
-8 -4 -11 -10z"/>
<path d="M4313 8685 c0 -7 8 -10 19 -7 10 2 18 6 18 7 0 1 -8 5 -18 7 -11 3
-19 0 -19 -7z"/>
<path d="M6518 8683 c-10 -2 -18 -8 -18 -13 0 -10 38 -1 46 11 5 9 1 10 -28 2z"/>
<path d="M6526 8651 c-3 -5 1 -12 10 -15 20 -8 29 -1 19 13 -8 13 -22 14 -29
2z"/>
<path d="M4235 8620 c-9 -15 3 -30 19 -24 9 3 18 -5 24 -23 6 -17 11 -21 11
-10 1 11 9 17 24 17 22 1 22 1 -3 15 -14 8 -33 14 -43 15 -10 0 -15 5 -12 10
3 6 2 10 -4 10 -5 0 -13 -4 -16 -10z"/>
<path d="M4295 8539 c-11 -17 1 -21 15 -4 8 9 8 15 2 15 -6 0 -14 -5 -17 -11z"/>
<path d="M6408 8513 c7 -3 16 -2 19 1 4 3 -2 6 -13 5 -11 0 -14 -3 -6 -6z"/>
<path d="M6405 8470 c3 -5 14 -10 23 -10 15 0 15 2 2 10 -20 13 -33 13 -25 0z"/>
<path d="M6508 8363 c7 -3 16 -2 19 1 4 3 -2 6 -13 5 -11 0 -14 -3 -6 -6z"/>
<path d="M4295 8330 c-3 -5 1 -10 10 -10 9 0 13 5 10 10 -3 6 -8 10 -10 10 -2
0 -7 -4 -10 -10z"/>
<path d="M4220 8300 c0 -6 7 -10 15 -10 8 0 15 2 15 4 0 2 -7 6 -15 10 -8 3
-15 1 -15 -4z"/>
<path d="M4296 8291 c-3 -5 1 -14 8 -20 12 -10 13 -8 9 8 -6 23 -9 25 -17 12z"/>
<path d="M4350 8207 c0 -8 7 -14 15 -14 11 0 12 4 4 14 -6 7 -13 13 -15 13 -2
0 -4 -6 -4 -13z"/>
<path d="M5350 7291 c0 -6 4 -12 8 -15 5 -3 9 1 9 9 0 8 -4 15 -9 15 -4 0 -8
-4 -8 -9z"/>
<path d="M5380 7210 c0 -5 7 -10 16 -10 8 0 12 5 9 10 -3 6 -10 10 -16 10 -5
0 -9 -4 -9 -10z"/>
<path d="M5306 6363 c-11 -11 -6 -23 9 -23 8 0 15 4 15 9 0 13 -16 22 -24 14z"/>
<path d="M5310 6310 c0 -5 5 -10 11 -10 5 0 7 5 4 10 -3 6 -8 10 -11 10 -2 0
-4 -4 -4 -10z"/>
<path d="M5325 6270 c3 -5 11 -10 16 -10 6 0 7 5 4 10 -3 6 -11 10 -16 10 -6
0 -7 -4 -4 -10z"/>
<path d="M4730 6490 c-18 -12 -2 -12 25 0 13 6 15 9 5 9 -8 0 -22 -4 -30 -9z"/>
<path d="M4650 6459 c0 -14 31 -39 41 -34 18 12 9 33 -16 37 -14 3 -25 2 -25
-3z"/>
<path d="M4713 6445 c0 -9 9 -15 21 -14 12 0 15 3 8 6 -6 2 -10 9 -6 14 3 5
-1 9 -9 9 -7 0 -14 -7 -14 -15z"/>
<path d="M4625 6430 c-3 -5 1 -10 10 -10 9 0 13 5 10 10 -3 6 -8 10 -10 10 -2
0 -7 -4 -10 -10z"/>
<path d="M4358 6393 c7 -3 16 -2 19 1 4 3 -2 6 -13 5 -11 0 -14 -3 -6 -6z"/>
<path d="M4277 6370 c-9 -11 -13 -20 -8 -20 11 0 35 29 29 35 -2 2 -12 -4 -21
-15z"/>
<path d="M4280 6296 c0 -7 40 -14 44 -7 3 4 -6 8 -20 9 -13 1 -24 0 -24 -2z"/>
<path d="M6225 6340 c3 -5 10 -10 16 -10 5 0 9 5 9 10 0 6 -7 10 -16 10 -8 0
-12 -4 -9 -10z"/>
<path d="M6308 6333 c7 -3 16 -2 19 1 4 3 -2 6 -13 5 -11 0 -14 -3 -6 -6z"/>
<path d="M6483 6333 c9 -2 25 -2 35 0 9 3 1 5 -18 5 -19 0 -27 -2 -17 -5z"/>
<path d="M6400 6321 c0 -9 24 -21 41 -21 5 0 9 4 9 10 0 5 -7 7 -15 4 -8 -4
-15 -1 -15 5 0 6 -4 11 -10 11 -5 0 -10 -4 -10 -9z"/>
<path d="M6476 6313 c-3 -3 -3 -10 0 -14 7 -12 34 -11 34 0 0 11 -26 22 -34
14z"/>
<path d="M6180 6280 c0 -5 5 -10 11 -10 5 0 7 5 4 10 -3 6 -8 10 -11 10 -2 0
-4 -4 -4 -10z"/>
<path d="M6248 6283 c7 -3 16 -2 19 1 4 3 -2 6 -13 5 -11 0 -14 -3 -6 -6z"/>
<path d="M6725 6250 c-3 -5 -1 -10 4 -10 6 0 11 5 11 10 0 6 -2 10 -4 10 -3 0
-8 -4 -11 -10z"/>
<path d="M6848 6183 c6 -2 18 -2 25 0 6 3 1 5 -13 5 -14 0 -19 -2 -12 -5z"/>
<path d="M4730 6066 c0 -2 7 -6 15 -10 8 -3 15 -1 15 4 0 6 -7 10 -15 10 -8 0
-15 -2 -15 -4z"/>
<path d="M4029 5982 c11 -20 13 -21 28 -7 8 9 12 19 8 23 -4 4 -10 1 -12 -6
-4 -10 -8 -10 -21 0 -14 12 -14 10 -3 -10z"/>
<path d="M3980 5820 c0 -5 5 -10 11 -10 5 0 7 5 4 10 -3 6 -8 10 -11 10 -2 0
-4 -4 -4 -10z"/>
<path d="M4016 5735 c-3 -8 -1 -15 4 -15 6 0 10 7 10 15 0 8 -2 15 -4 15 -2 0
-6 -7 -10 -15z"/>
<path d="M4110 5700 c0 -5 5 -10 11 -10 5 0 7 5 4 10 -3 6 -8 10 -11 10 -2 0
-4 -4 -4 -10z"/>
<path d="M4488 5653 c7 -3 16 -2 19 1 4 3 -2 6 -13 5 -11 0 -14 -3 -6 -6z"/>
<path d="M4445 5580 c3 -5 8 -10 11 -10 2 0 4 5 4 10 0 6 -5 10 -11 10 -5 0
-7 -4 -4 -10z"/>
<path d="M6950 5941 c0 -5 7 -11 15 -15 8 -3 15 -1 15 3 0 5 -7 11 -15 15 -8
3 -15 1 -15 -3z"/>
<path d="M6900 5895 c-7 -9 -8 -15 -2 -15 5 0 12 7 16 15 3 8 4 15 2 15 -2 0
-9 -7 -16 -15z"/>
<path d="M6975 5900 c3 -5 8 -10 11 -10 2 0 4 5 4 10 0 6 -5 10 -11 10 -5 0
-7 -4 -4 -10z"/>
<path d="M6926 5831 c-4 -5 -2 -12 3 -15 5 -4 12 -2 15 3 4 5 2 12 -3 15 -5 4
-12 2 -15 -3z"/>
<path d="M6470 5760 c0 -6 7 -10 15 -10 8 0 15 2 15 4 0 2 -7 6 -15 10 -8 3
-15 1 -15 -4z"/>
<path d="M6780 5600 c-8 -5 -12 -12 -9 -15 4 -3 12 1 19 10 14 17 11 19 -10 5z"/>
<path d="M4731 5504 c0 -11 3 -14 6 -6 3 7 2 16 -1 19 -3 4 -6 -2 -5 -13z"/>
<path d="M4655 5440 c-3 -5 1 -10 9 -10 9 0 16 5 16 10 0 6 -4 10 -9 10 -6 0
-13 -4 -16 -10z"/>
<path d="M4723 5433 c-18 -7 -16 -28 5 -44 16 -13 16 -12 2 5 -13 16 -12 20 5
32 18 14 12 17 -12 7z"/>
<path d="M4600 5386 c0 -2 8 -10 18 -17 15 -13 16 -12 3 4 -13 16 -21 21 -21
13z"/>
<path d="M4726 5353 c-4 -11 -1 -11 14 -3 24 13 25 17 5 17 -8 0 -16 -6 -19
-14z"/>
<path d="M4560 5340 c-9 -6 -10 -10 -3 -10 6 0 15 5 18 10 8 12 4 12 -15 0z"/>
<path d="M4620 5339 c0 -5 5 -7 10 -4 6 3 10 8 10 11 0 2 -4 4 -10 4 -5 0 -10
-5 -10 -11z"/>
<path d="M4610 5299 c0 -5 5 -7 10 -4 6 3 10 8 10 11 0 2 -4 4 -10 4 -5 0 -10
-5 -10 -11z"/>
<path d="M5196 5072 c-2 -4 -1 -14 4 -22 7 -11 9 -9 7 8 -1 24 -3 26 -11 14z"/>
<path d="M5257 5059 c7 -7 15 -10 18 -7 3 3 -2 9 -12 12 -14 6 -15 5 -6 -5z"/>
<path d="M5316 5034 c-5 -14 -4 -15 9 -4 17 14 19 20 6 20 -5 0 -12 -7 -15
-16z"/>
<path d="M5380 5009 c0 -5 4 -8 9 -4 5 3 12 1 16 -5 3 -5 11 -10 16 -10 6 0 4
7 -5 15 -17 17 -36 20 -36 4z"/>
<path d="M5620 5005 c0 -9 6 -12 15 -9 8 4 15 7 15 9 0 2 -7 5 -15 9 -9 3 -15
0 -15 -9z"/>
<path d="M5328 5003 c7 -3 16 -2 19 1 4 3 -2 6 -13 5 -11 0 -14 -3 -6 -6z"/>
<path d="M5475 5140 c3 -5 8 -10 11 -10 2 0 4 5 4 10 0 6 -5 10 -11 10 -5 0
-7 -4 -4 -10z"/>
<path d="M6940 4789 c0 -5 5 -7 10 -4 6 3 10 8 10 11 0 2 -4 4 -10 4 -5 0 -10
-5 -10 -11z"/>
<path d="M4426 4748 c3 -5 10 -6 15 -3 13 9 11 12 -6 12 -8 0 -12 -4 -9 -9z"/>
<path d="M4330 4699 c0 -5 5 -7 10 -4 6 3 10 8 10 11 0 2 -4 4 -10 4 -5 0 -10
-5 -10 -11z"/>
<path d="M5405 4719 c-4 -6 -5 -12 -2 -15 2 -3 7 2 10 11 7 17 1 20 -8 4z"/>
<path d="M5438 4723 c7 -3 16 -2 19 1 4 3 -2 6 -13 5 -11 0 -14 -3 -6 -6z"/>
<path d="M4803 4246 c0 -8 6 -12 14 -9 7 3 13 9 13 14 0 5 -6 9 -13 9 -8 0
-14 -6 -14 -14z"/>
<path d="M4845 4240 c-3 -5 1 -10 9 -10 8 0 18 5 21 10 3 6 -1 10 -9 10 -8 0
-18 -4 -21 -10z"/>
<path d="M5060 4090 c0 -6 7 -10 15 -10 8 0 15 2 15 4 0 2 -7 6 -15 10 -8 3
-15 1 -15 -4z"/>
<path d="M5088 4043 c6 -2 18 -2 25 0 6 3 1 5 -13 5 -14 0 -19 -2 -12 -5z"/>
<path d="M5315 4040 c-3 -5 -1 -10 4 -10 6 0 11 5 11 10 0 6 -2 10 -4 10 -3 0
-8 -4 -11 -10z"/>
<path d="M5880 4040 c-8 -5 -18 -6 -23 -3 -4 3 -20 2 -35 -2 l-27 -7 22 -18
c12 -9 19 -21 15 -26 -4 -5 1 -2 11 5 9 8 15 16 12 20 -3 3 11 10 32 16 26 7
33 13 22 17 -9 3 -22 2 -29 -2z"/>
<path d="M4991 3954 c0 -11 3 -14 6 -6 3 7 2 16 -1 19 -3 4 -6 -2 -5 -13z"/>
<path d="M5460 3966 c0 -2 7 -7 16 -10 8 -3 12 -2 9 4 -6 10 -25 14 -25 6z"/>
<path d="M5610 3961 c0 -5 -21 -7 -47 -6 l-48 4 42 -12 c42 -12 67 -27 44 -27
-9 0 -9 -3 1 -13 7 -8 21 -12 30 -9 18 4 18 5 1 18 -10 7 -13 14 -7 14 15 0
13 28 -3 34 -7 3 -13 1 -13 -3z"/>
<path d="M5355 3930 c3 -5 11 -10 16 -10 6 0 7 5 4 10 -3 6 -11 10 -16 10 -6
0 -7 -4 -4 -10z"/>
<path d="M5306 3901 c-3 -5 1 -11 9 -14 9 -4 12 -1 8 9 -6 16 -10 17 -17 5z"/>
<path d="M5801 3895 c1 -19 18 -51 18 -35 0 8 -4 22 -9 30 -5 8 -9 11 -9 5z"/>
<path d="M4986 3872 c-3 -5 1 -9 9 -9 8 0 15 4 15 9 0 4 -4 8 -9 8 -6 0 -12
-4 -15 -8z"/>
<path d="M5760 3865 c0 -8 8 -15 18 -14 10 0 12 3 4 6 -6 2 -10 9 -6 14 3 5 0
9 -5 9 -6 0 -11 -7 -11 -15z"/>
<path d="M5830 3865 c0 -8 9 -15 20 -15 24 0 27 15 4 24 -22 9 -24 8 -24 -9z"/>
<path d="M5515 3860 c3 -5 8 -10 11 -10 2 0 4 5 4 10 0 6 -5 10 -11 10 -5 0
-7 -4 -4 -10z"/>
<path d="M5611 3851 c-8 -5 -9 -11 -3 -15 5 -3 12 1 16 9 6 17 6 18 -13 6z"/>
<path d="M5000 3846 c0 -2 7 -6 15 -10 8 -3 15 -1 15 4 0 6 -7 10 -15 10 -8 0
-15 -2 -15 -4z"/>
<path d="M5700 3820 c0 -5 5 -10 11 -10 5 0 7 5 4 10 -3 6 -8 10 -11 10 -2 0
-4 -4 -4 -10z"/>
<path d="M5897 3784 c6 -15 23 -19 23 -5 0 5 -7 11 -14 14 -10 4 -13 1 -9 -9z"/>
<path d="M5705 3641 c-6 -11 9 -23 19 -14 9 9 7 23 -3 23 -6 0 -12 -4 -16 -9z"/>
<path d="M5655 3599 c-4 -6 -5 -12 -2 -15 2 -3 7 2 10 11 7 17 1 20 -8 4z"/>
<path d="M5680 3554 c0 -8 5 -12 10 -9 6 3 10 10 10 16 0 5 -4 9 -10 9 -5 0
-10 -7 -10 -16z"/>
<path d="M5608 3543 c7 -3 16 -2 19 1 4 3 -2 6 -13 5 -11 0 -14 -3 -6 -6z"/>
<path d="M4550 3551 c0 -5 5 -13 10 -16 6 -3 10 -2 10 4 0 5 -4 13 -10 16 -5
3 -10 2 -10 -4z"/>
<path d="M4399 3469 c-10 -6 -7 -9 14 -9 29 0 35 5 14 13 -8 3 -20 1 -28 -4z"/>
<path d="M4410 3410 c-9 -6 -10 -10 -3 -10 6 0 15 5 18 10 8 12 4 12 -15 0z"/>
<path d="M4358 3373 c7 -3 16 -2 19 1 4 3 -2 6 -13 5 -11 0 -14 -3 -6 -6z"/>
<path d="M4335 3280 c-16 -7 -17 -9 -3 -9 9 -1 20 4 23 9 7 11 7 11 -20 0z"/>
<path d="M5358 2833 c7 -3 16 -2 19 1 4 3 -2 6 -13 5 -11 0 -14 -3 -6 -6z"/>
<path d="M5400 2811 c0 -6 4 -13 10 -16 6 -3 7 1 4 9 -7 18 -14 21 -14 7z"/>
<path d="M5398 2723 c-24 -6 -23 -19 2 -19 11 0 20 6 20 13 0 7 -1 12 -2 12
-2 -1 -11 -3 -20 -6z"/>
<path d="M5360 2690 c0 -5 5 -10 11 -10 5 0 7 5 4 10 -3 6 -8 10 -11 10 -2 0
-4 -4 -4 -10z"/>
<path d="M5245 2651 c-3 -5 -2 -12 3 -15 5 -3 9 1 9 9 0 17 -3 19 -12 6z"/>
<path d="M5340 2630 c0 -5 5 -10 11 -10 5 0 7 5 4 10 -3 6 -8 10 -11 10 -2 0
-4 -4 -4 -10z"/>
<path d="M5400 2613 c0 -21 3 -24 9 -14 5 8 7 20 4 28 -8 21 -13 15 -13 -14z"/>
<path d="M5438 2633 c7 -3 16 -2 19 1 4 3 -2 6 -13 5 -11 0 -14 -3 -6 -6z"/>
<path d="M5500 2619 c0 -6 25 -19 36 -19 2 0 4 6 4 13 0 7 -9 13 -20 13 -11 0
-20 -3 -20 -7z"/>
<path d="M5510 2578 c0 -10 9 -9 35 2 17 8 16 8 -7 7 -16 -1 -28 -5 -28 -9z"/>
<path d="M5470 2565 c-11 -13 -10 -14 4 -9 9 3 16 10 16 15 0 13 -6 11 -20 -6z"/>
<path d="M5358 2553 c7 -3 16 -2 19 1 4 3 -2 6 -13 5 -11 0 -14 -3 -6 -6z"/>
<path d="M5382 2537 c-8 -10 -6 -13 7 -13 11 0 17 6 14 13 -3 7 -6 13 -8 13
-1 0 -7 -6 -13 -13z"/>
<path d="M4689 2513 c12 -23 29 -38 37 -31 2 3 -8 15 -22 29 -25 23 -26 23
-15 2z"/>
<path d="M5438 2523 c7 -3 16 -2 19 1 4 3 -2 6 -13 5 -11 0 -14 -3 -6 -6z"/>
<path d="M5402 2488 c3 -7 13 -15 24 -17 16 -3 17 -1 5 13 -16 19 -34 21 -29
4z"/>
<path d="M5590 2493 c0 -7 -9 -13 -21 -13 -12 0 -17 -4 -14 -11 4 -6 10 -8 13
-5 3 3 11 1 19 -6 22 -18 36 4 18 28 -8 10 -15 14 -15 7z"/>
<path d="M5128 2483 c7 -3 16 -2 19 1 4 3 -2 6 -13 5 -11 0 -14 -3 -6 -6z"/>
<path d="M5450 2470 c0 -5 5 -10 11 -10 5 0 7 5 4 10 -3 6 -8 10 -11 10 -2 0
-4 -4 -4 -10z"/>
<path d="M5504 2462 c7 -11 -7 -17 -29 -12 -5 1 1 -10 14 -24 25 -27 68 -37
56 -13 -4 6 1 3 10 -8 13 -17 17 -18 25 -5 5 8 6 18 4 22 -7 12 -54 10 -54 -2
0 -5 -5 -10 -10 -10 -6 0 -8 10 -4 24 3 14 1 27 -7 31 -8 5 -10 4 -5 -3z"/>
<path d="M5203 2430 c-13 -5 -23 -11 -23 -14 0 -7 40 6 46 15 6 10 6 10 -23
-1z"/>
<path d="M5320 2410 c-9 -6 -10 -10 -3 -10 6 0 15 5 18 10 8 12 4 12 -15 0z"/>
<path d="M5390 2396 c0 -18 38 -65 53 -66 4 0 7 10 7 21 0 18 2 19 15 9 10 -8
15 -9 15 -1 0 6 -13 17 -30 26 -22 11 -30 12 -30 3 0 -6 -7 -3 -15 8 -14 18
-14 18 -15 0z"/>
<path d="M5365 2391 c-3 -5 -1 -12 5 -16 5 -3 10 1 10 9 0 18 -6 21 -15 7z"/>
<path d="M5440 2310 c0 -5 7 -7 15 -4 8 4 15 8 15 10 0 2 -7 4 -15 4 -8 0 -15
-4 -15 -10z"/>
<path d="M5488 2313 c7 -3 16 -2 19 1 4 3 -2 6 -13 5 -11 0 -14 -3 -6 -6z"/>
<path d="M5575 2310 c-3 -5 -1 -10 4 -10 6 0 11 5 11 10 0 6 -2 10 -4 10 -3 0
-8 -4 -11 -10z"/>
<path d="M5330 2222 c0 -5 14 -9 32 -10 23 -1 28 2 18 8 -19 12 -50 13 -50 2z"/>
<path d="M5200 2211 c0 -5 7 -11 15 -15 8 -3 15 -1 15 3 0 5 -7 11 -15 15 -8
3 -15 1 -15 -3z"/>
<path d="M5260 2200 c0 -5 7 -7 15 -4 8 4 15 8 15 10 0 2 -7 4 -15 4 -8 0 -15
-4 -15 -10z"/>
<path d="M5380 2169 c0 -5 4 -8 9 -4 5 3 12 1 16 -5 8 -13 -20 -42 -30 -32 -5
4 -5 2 -1 -5 4 -7 12 -10 20 -7 7 3 18 -5 24 -18 10 -21 10 -20 5 10 -3 19 -1
32 5 32 5 0 13 7 16 16 4 12 1 14 -14 9 -11 -4 -20 -2 -20 4 0 6 -7 11 -15 11
-8 0 -15 -5 -15 -11z"/>
<path d="M5533 2173 c9 -2 23 -2 30 0 6 3 -1 5 -18 5 -16 0 -22 -2 -12 -5z"/>
<path d="M5606 2165 c4 -8 11 -15 18 -16 6 0 22 -2 36 -5 18 -2 15 2 -14 16
-47 24 -47 24 -40 5z"/>
<path d="M5470 2160 c0 -13 11 -13 30 0 12 8 11 10 -7 10 -13 0 -23 -4 -23
-10z"/>
<path d="M5270 2121 c0 -7 -4 -9 -10 -6 -5 3 -10 1 -10 -4 0 -6 4 -11 9 -11
13 0 25 20 17 27 -3 4 -6 1 -6 -6z"/>
<path d="M5313 2116 c14 -11 15 -15 5 -19 -8 -3 -6 -6 6 -6 13 -1 16 4 12 15
-3 9 -6 18 -6 20 0 2 -8 4 -17 4 -17 -1 -17 -1 0 -14z"/>
<path d="M5205 2110 c-3 -5 -1 -10 4 -10 6 0 11 5 11 10 0 6 -2 10 -4 10 -3 0
-8 -4 -11 -10z"/>
<path d="M5409 2021 c11 -7 11 -9 0 -14 -8 -3 -2 -6 13 -6 20 -1 26 3 22 14
-4 8 -16 15 -28 15 -15 0 -17 -3 -7 -9z"/>
<path d="M5345 1999 c-4 -6 -4 -13 -1 -16 3 -4 6 -1 6 6 0 7 5 9 12 5 7 -4 8
-3 4 4 -9 15 -13 15 -21 1z"/>
<path d="M7478 803 c7 -3 16 -2 19 1 4 3 -2 6 -13 5 -11 0 -14 -3 -6 -6z"/>
<path d="M7205 710 c-3 -5 -1 -10 4 -10 6 0 11 5 11 10 0 6 -2 10 -4 10 -3 0
-8 -4 -11 -10z"/>
<path d="M7360 621 c0 -6 4 -13 10 -16 6 -3 7 1 4 9 -7 18 -14 21 -14 7z"/>
<path d="M7395 580 c3 -5 8 -10 11 -10 2 0 4 5 4 10 0 6 -5 10 -11 10 -5 0 -7
-4 -4 -10z"/>
</g>
</svg>
